<?xml version="1.0" encoding="UTF-8"?><svg id="Layer_1" xmlns="http://www.w3.org/2000/svg" viewBox="0 0 130.17 127.56"><defs><style>.cls-1{fill:#f5b606;}.cls-2{fill:#e8e8e8;}.cls-3{stroke-width:2.33px;}.cls-3,.cls-4{fill:#fff;stroke:#0b063f;stroke-miterlimit:10;}.cls-4{stroke-width:1.4px;}</style></defs><polygon class="cls-1" points="12.57 43.23 11.73 29.86 18.65 29.15 18.44 22.68 25.82 22.58 24.61 17.53 31.99 17.23 33.22 9.4 45.87 9.29 45.8 5.85 84.37 3.84 86.76 9.39 99.52 9.87 99.58 15.72 104.51 17.25 106.29 22.12 111.69 24.19 111.68 29.81 118.8 31.35 118.74 41.51 124.34 44.52 124.34 81.96 119.54 84.42 118.94 97.04 111.7 96.77 111.71 104.14 105.61 103.7 105.65 111.56 98.4 111.07 97.74 117.32 85.17 117.04 84.62 122.4 45.72 123.14 44.38 117.3 34.28 116.52 31.56 110.3 25.73 108.36 24.18 103.7 21.07 102.15 18.65 96.26 11.69 96.3 10.7 83.12 7.73 83.12 6.5 44.49 12.57 43.23"/><path class="cls-3" d="m45.23,3.83c1.54,0,3.01,0,4.49,0,11.55,0,23.1,0,34.65.01.5,0,1,.1,1.49.16.27.04.4.19.4.48,0,1.48.03,2.96-.03,4.44-.02.5.2.47.52.46,3.67,0,7.33,0,11-.01.44,0,.88.03,1.32.03.33,0,.44.15.44.46,0,.98,0,1.95,0,2.93.01.98.03,1.95.06,2.93,0,.26.1.51.15.79,1.04,0,2.07,0,3.1,0,.94,0,1.88.02,2.82.05.45.02.65.26.64.74-.02,1.6,0,3.21-.01,4.82,0,.39.12.51.51.51,1.37-.02,2.74,0,4.11,0,.19,0,.38,0,.57,0,1.2.03,1.25.09,1.26,1.29.01,1.34.05,2.67.04,4.01,0,.29-.09.58-.17.86-.09.32.08.54.48.55.58.02,1.16.04,1.75.05,1.37.01,2.74.03,4.11.01.44,0,.6.16.59.57,0,.27.02.53.02.8,0,3.81,0,7.62-.01,11.42,0,.37.14.41.45.41,1.46,0,2.93,0,4.39-.01.46,0,.64.12.64.61,0,1.82.06,3.65.06,5.47,0,9.99,0,19.99,0,29.98,0,1.51-.04,3.02-.04,4.53,0,.47-.22.59-.64.59-1.42,0-2.83.02-4.25,0-.48,0-.62.16-.61.63.01,4,0,7.99.02,11.99,0,.48-.15.63-.62.63-1.86,0-3.71.05-5.57.06-.41,0-.58.09-.57.55.03,1.81.02,3.62.02,5.43,0,.57-.53,1.06-1.11,1.05-1.4-.01-2.8-.02-4.2,0-.3,0-.64.08-.9.23-.16.1-.28.4-.29.62-.02,1.73,0,3.46-.02,5.19,0,.3-.05.6-.06.89,0,.42-.22.51-.6.5-1.87-.02-3.75,0-5.62-.01-.37,0-.52.14-.52.49,0,.71.02,1.42,0,2.12-.02.77-.06,1.53-.11,2.3-.03.51-.44.66-.83.77-.27.08-.56.08-.84.08-2.96.01-5.92.02-8.88.02-.66,0-1.32-.04-1.98-.09-.42-.03-.57.16-.58.54,0,.53,0,1.07,0,1.6,0,1.07,0,2.14,0,3.21,0,.34-.08.5-.48.5-1.51,0-3.02.07-4.53.07-11.13,0-22.25,0-33.38,0-.74,0-1.48-.05-2.22-.04-.46,0-.6-.22-.59-.64.01-1.49.01-2.99,0-4.49,0-.77-.05-.79-.82-.74-.71.05-1.41.06-2.12.06-2.63,0-5.26,0-7.88-.01-.64,0-1.29-.07-1.93-.08-.34,0-.5-.16-.51-.48-.02-.72-.03-1.45-.03-2.17,0-1.21,0-2.42.04-3.63.01-.45-.15-.56-.58-.56-1.83.01-3.65-.02-5.48-.01-.46,0-.64-.17-.64-.64.02-1.65,0-3.3,0-4.96,0-1.06,0-1.06-1.08-1.06-1.57,0-3.15.01-4.72,0-.79,0-.82-.02-.83-.82-.02-1.73,0-3.46.01-5.19,0-.62-.02-.64-.63-.64-1.79-.01-3.59-.02-5.38-.03-.03,0-.06,0-.09,0-.76-.01-.77-.01-.78-.76-.03-2.74-.08-5.47-.09-8.21,0-1.29.04-2.57.08-3.86.01-.38-.25-.39-.5-.4-1.04-.02-2.08-.02-3.12-.03-.6,0-1.2,0-1.79,0-.35,0-.49-.17-.49-.53,0-4.67-.03-9.35-.03-14.02,0-7.87,0-15.74,0-23.61,0-.61-.01-1.22,0-1.83.02-.68.33-.96,1-.97,1.4-.02,2.79-.04,4.19-.08.6-.02.67-.11.67-.71,0-3.56,0-7.11,0-10.67,0-.5.11-1,.14-1.5.02-.37.24-.48.56-.49.69,0,1.38-.01,2.08-.01.96,0,1.92,0,2.88,0,.68,0,.69,0,.69-.68,0-1.81,0-3.62,0-5.43,0-.39.09-.57.52-.57,1.89.01,3.77-.01,5.66,0,.42,0,.51-.18.51-.53,0-1.54,0-3.08,0-4.63,0-.85.07-.94.94-.97,1.43-.04,2.86-.04,4.29-.09.35-.01.77.23,1.05-.24.05-.08.33-.04.5-.03.37.02.49-.15.48-.51-.02-1.64-.07-3.27-.02-4.91.05-1.67-.21-1.37,1.38-1.37,3.78-.01,7.55,0,11.33.01.48,0,.62-.15.61-.62-.02-1.42,0-2.83.02-4.25,0-.2.03-.4.05-.72Zm-12.49,13.34c-.26.02-.5.06-.75.07-1.87,0-3.75.02-5.62.01-.41,0-.58.1-.57.56.03,1.59.02,3.18.02,4.77,0,.7-.24.95-.95.99-.74.04-1.48.06-2.22.07-1.01.01-2.01,0-3.02.02-.73.02-1.03.33-1.03,1.05.01,1.48.1,2.96.05,4.44-.05,1.59.12,1.33-1.35,1.36-1.42.03-2.83,0-4.25,0-.3,0-.51.06-.5.45.03,1.15.04,2.3.04,3.44,0,2.94-.03,5.88-.03,8.83,0,.41-.11.63-.55.61-.38-.02-.76,0-1.13,0-1.27.01-2.55.02-3.82.03-.41,0-.58.19-.57.61.03.86.02,1.73.02,2.6,0,11.6-.01,23.2-.02,34.8,0,1.06.15,1.23,1.23,1.24,1.4.01,2.8.02,4.2-.01.44-.01.59.14.59.56.02,1.37.08,2.74.08,4.11,0,2.52-.02,5.04-.06,7.55,0,.49.18.76.64.82.48.07.97.12,1.45.13,1.34.01,2.68,0,4.01,0,.79,0,1.05.25,1.07,1.03.02,1.2.05,2.39.06,3.59,0,.41-.02.82-.04,1.23-.04.82.1.97.91.97,1.54,0,3.08,0,4.63,0,.55,0,.6.08.6.64-.01,1.61-.02,3.21-.02,4.82,0,.77.16.93.92,1.03.19.02.38.02.57.02,1.29,0,2.58,0,3.87,0,.25,0,.5-.01.76,0,.58.05.76.32.74.89-.03.74-.07,1.49.05,2.21.13.76.3,1.5.25,2.27-.02.31-.04.63-.06.94-.02.35.15.47.49.47,2.88-.02,5.76-.03,8.64-.03,1.09,0,2.17.05,3.26.06.36,0,.5.14.49.51-.02.57-.01,1.13,0,1.7.01,1.04.04,2.08.05,3.11,0,.49.29.67.72.69.57.02,1.13,0,1.7,0,11.33,0,22.66,0,33.99,0,.79,0,1.57.02,2.36,0,.18,0,.47-.11.5-.22.11-.48.16-.98.18-1.47.01-.32-.11-.65-.11-.97-.01-.9.03-1.79,0-2.69-.02-.45.14-.64.57-.64.11,0,.22-.02.33-.02,3.89,0,7.77,0,11.66,0,.64,0,.67-.02.67-.64,0-1.56-.01-3.12-.01-4.67,0-.69.02-.69.69-.69,1.95,0,3.9,0,5.85,0,.67,0,.7-.05.7-.73,0-1.98,0-3.97-.03-5.95,0-.48.15-.6.59-.6,1.64.02,3.27,0,4.91.01.44,0,.61-.11.6-.59-.03-1.92,0-3.84-.02-5.76,0-.45.15-.65.6-.59.14.02.28.02.42.02,1.57.03,3.14.07,4.72.07.94,0,1.39-.48,1.31-1.42-.03-.38-.23-.76-.25-1.14-.06-.98-.06-1.96-.08-2.94-.01-.77,0-1.54,0-2.31,0-.53,0-1.07.05-1.6.08-.98.23-1.96.3-2.94.05-.76.14-.87.89-.85,1.29.03,2.58.06,3.87.02.68-.02.77-.18.81-.88,0-.08,0-.16,0-.24,0-12.48,0-24.96,0-37.44,0-.66-.19-.91-.84-.93-1.29-.03-2.58-.02-3.87,0-.56.01-.89-.29-.83-.87.03-.31.05-.63.05-.94,0-.1-.06-.27-.11-.28-.42-.06-.31-.37-.31-.62-.04-3.19-.06-6.38.37-9.54.08-.55-.15-.71-.59-.77-.23-.03-.47-.04-.71-.04-1.72,0-3.43-.01-5.15-.02q-.69,0-.68-.71c0-1.87.01-3.75.01-5.62,0-.72-.11-.81-.82-.82-.39,0-.79,0-1.18,0-1.16,0-2.33,0-3.49,0-.64,0-.99-.25-1-.69-.03-1.59-.06-3.18-.07-4.77,0-.59-.04-.66-.62-.66-1.84,0-3.68-.01-5.52.02-.48,0-.61-.13-.6-.61.03-1.87.02-3.75.02-5.62,0-.77-.14-.9-.88-.87-.14,0-.28,0-.42,0-3.78,0-7.55,0-11.33-.01-.67,0-.69-.02-.69-.72,0-1.15.01-2.3,0-3.45-.03-1.56.24-1.38-1.38-1.38-12.2-.01-24.39-.02-36.59-.02-1.11,0-1.3.16-1.3,1.27,0,1.15.02,2.3.07,3.44.04,1.05-.08,1.22-1.11,1.22-3.62.01-7.24.02-10.86.03-.97,0-1.01.06-.94,1.02.03.47.07.96-.05,1.4-.35,1.36-.32,2.73-.17,4.21Z"/><polygon class="cls-2" points="77.75 34.39 85.8 33.88 86.23 38.05 90.13 37.93 90.19 42.37 93.23 41.64 93.41 46.09 98.13 46.83 98.19 54.45 100.27 54.41 101.48 77.65 98.14 79.09 97.85 86.77 94.32 86.81 93.4 89.78 90.47 90.85 89.22 94.1 85.83 94.1 84.91 98.39 78.78 98.35 76.97 101.73 54.41 101.73 52.93 98.84 45.33 98.47 45.5 94.11 41.05 94.12 41.32 90.44 36.58 90.47 36.88 86.1 33.12 85.7 33.28 78.13 30.05 77.79 29.61 54.36 33.13 53.55 33.6 47.47 37.34 45.83 38.51 42.32 41.32 41.38 42.26 39.51 45.8 38.05 45.78 33.86 53.72 33.27 53.72 31.47 76.99 30.73 77.75 34.39"/><path class="cls-4" d="m101.48,54.07c0,.93,0,1.82,0,2.7,0,6.96,0,13.92,0,20.88,0,.3-.06.6-.1.9-.02.16-.12.24-.29.24-.89,0-1.78.02-2.67-.02-.3-.01-.28.12-.28.31,0,2.21,0,4.42,0,6.63,0,.27-.02.53-.02.8,0,.2-.09.26-.28.26-.59,0-1.18,0-1.76,0-.59,0-1.18.02-1.76.04-.16,0-.31.06-.48.09,0,.63,0,1.25,0,1.87,0,.57-.01,1.13-.03,1.7,0,.27-.16.39-.45.38-.97-.01-1.93,0-2.9,0-.23,0-.31.07-.31.31.01.82,0,1.65,0,2.47,0,.11,0,.23,0,.34-.02.72-.05.75-.78.76-.81,0-1.61.03-2.42.03-.17,0-.35-.05-.52-.1-.19-.06-.33.05-.33.29-.01.35-.02.7-.03,1.05,0,.82-.02,1.65,0,2.47,0,.27-.1.36-.35.35-.16,0-.32.01-.48.01-2.29,0-4.59,0-6.88,0-.22,0-.25.09-.25.27,0,.88,0,1.76,0,2.65,0,.27-.07.38-.37.38-1.1,0-2.2.03-3.3.03-6.02,0-12.04,0-18.06,0-.91,0-1.82-.02-2.73-.02-.28,0-.36-.13-.36-.38,0-.85-.01-1.71,0-2.56,0-.29-.1-.37-.38-.37-2.41,0-4.82,0-7.22.01-.29,0-.38-.09-.38-.37,0-1.12-.03-2.24-.04-3.35,0-.25-.05-.35-.33-.34-1.09.02-2.18,0-3.27,0-.34,0-.64-.32-.64-.67,0-.84.01-1.69,0-2.53,0-.18-.05-.39-.14-.54-.06-.1-.24-.17-.37-.17-1.04-.01-2.08,0-3.12,0-.18,0-.36-.03-.54-.03-.25,0-.31-.13-.3-.36.01-1.13,0-2.26,0-3.38,0-.23-.09-.31-.3-.31-.43,0-.85.02-1.28,0-.46-.01-.92-.04-1.38-.07-.31-.02-.4-.26-.47-.5-.05-.16-.05-.34-.05-.51,0-1.78-.01-3.56-.01-5.35,0-.4.02-.8.05-1.19.02-.25-.09-.35-.33-.35-.32,0-.64,0-.97,0-.64,0-1.29,0-1.93,0-.21,0-.3-.05-.3-.29,0-.91-.04-1.82-.04-2.73,0-6.7,0-13.41,0-20.11,0-.45.03-.89.03-1.34,0-.28.13-.36.39-.36.9,0,1.8,0,2.7,0,.47,0,.47-.03.44-.49-.03-.43-.04-.85-.04-1.28,0-1.58,0-3.17,0-4.75,0-.39.04-.78.05-1.16,0-.2.1-.3.29-.31.44,0,.87-.02,1.31-.02.73,0,1.46,0,2.19.02.27,0,.34-.09.33-.35,0-1.1.01-2.2,0-3.3,0-.28.1-.39.38-.39,1,0,1.99,0,2.99,0,.64,0,.64,0,.64-.65,0-.95,0-1.9,0-2.84,0-.47.01-.49.49-.5,1.04,0,2.08,0,3.13,0,.38,0,.38-.01.39-.38,0-1.08.01-2.16.02-3.24,0-.02,0-.04,0-.06,0-.46,0-.46.46-.47,1.65-.02,3.3-.05,4.95-.05.78,0,1.55.03,2.33.05.23,0,.24-.15.24-.3,0-.63.01-1.25.02-1.88,0-.36,0-.72,0-1.08,0-.21.1-.3.32-.3,2.82,0,5.63-.02,8.45-.02,4.74,0,9.48,0,14.22,0,.37,0,.74,0,1.1,0,.41.01.58.2.59.6.01.84.02,1.68.05,2.52.01.36.06.4.43.4,2.14,0,4.29,0,6.43,0,.3,0,.6.06.9.08.22.01.29.14.29.34,0,.42,0,.83,0,1.25,0,.58,0,1.16,0,1.73,0,.41,0,.41.41.41,1.09,0,2.18,0,3.27,0,.24,0,.34.05.34.31,0,1.14,0,2.27,0,3.41,0,.25.11.31.32.31.93,0,1.86,0,2.79,0,.51,0,.57.04.58.57.03.86.02,1.72.06,2.59,0,.21-.14.47.15.63.05.03.02.2.02.3-.01.22.09.29.31.29.99-.01,1.97-.04,2.96-.01,1.01.03.82-.12.83.83,0,2.28,0,4.55,0,6.83,0,.29.09.37.37.37.85-.01,1.71,0,2.56,0,.12,0,.24.02.43.03Zm-8.04-7.52c-.01-.16-.04-.3-.04-.45,0-1.13-.01-2.26,0-3.38,0-.25-.06-.35-.34-.35-.96.02-1.91.01-2.87.01-.42,0-.58-.14-.6-.57-.02-.44-.04-.89-.04-1.33,0-.61,0-1.21-.01-1.82-.01-.44-.2-.62-.63-.62-.89,0-1.78.06-2.67.03-.96-.03-.8.07-.82-.81-.02-.85,0-1.71,0-2.56,0-.18-.04-.31-.27-.3-.69.02-1.38.03-2.08.02-1.77,0-3.55-.02-5.32-.02-.25,0-.38-.06-.37-.33.01-.23,0-.45,0-.68,0-.77-.01-1.54-.02-2.3,0-.25-.11-.35-.37-.34-.52.02-1.04,0-1.56,0-6.99,0-13.98,0-20.96-.01-.64,0-.74.09-.74.74,0,.84-.01,1.69,0,2.53,0,.27-.08.35-.34.36-.82,0-1.65.05-2.47.05-1.52,0-3.03-.01-4.55-.03-.29,0-.46.11-.49.39-.04.29-.07.58-.08.88,0,.81,0,1.61,0,2.42,0,.48-.15.63-.62.64-.72.01-1.44.03-2.16.04-.25,0-.49-.01-.74-.03-.49-.03-.59.06-.59.55,0,.93,0,1.86,0,2.79,0,.33-.05.36-.38.36-.97,0-1.93-.01-2.9,0-.46,0-.56.09-.62.55-.01.11-.01.23-.01.34,0,.78,0,1.55,0,2.33,0,.15,0,.3,0,.45-.03.35-.19.46-.54.45-.44-.02-.9-.04-1.33.03-.46.08-.9.18-1.37.15-.19-.01-.38-.02-.57-.04-.21-.01-.28.09-.28.29,0,1.73.02,3.47.02,5.2,0,.65-.03,1.31-.03,1.96,0,.22-.08.3-.31.29-.34-.01-.68,0-1.02,0-.63,0-1.25.02-1.88.03-.29,0-.41.18-.41.43,0,.34,0,.68,0,1.02,0,6.83,0,13.65,0,20.48,0,.47-.01.95,0,1.42,0,.11.07.29.13.3.29.06.59.1.89.11.19,0,.39-.06.59-.07.54,0,1.08.02,1.62,0,.27-.01.39.08.38.35,0,.07.01.13.01.2,0,2.34,0,4.68,0,7.02,0,.39.01.41.39.4.94,0,1.88,0,2.82,0,.42,0,.42,0,.41.42,0,1.18,0,2.35,0,3.53,0,.4.03.42.44.42,1.19,0,2.39,0,3.58-.02.29,0,.36.09.36.36,0,.99,0,1.97,0,2.96,0,.26.07.37.35.36,1.16-.02,2.31,0,3.47,0,.27,0,.39.09.35.36-.01.08,0,.17-.01.26-.02.95-.04,1.89-.04,2.84,0,.57.29.84.86.79.23-.02.46-.14.69-.15.59-.03,1.18-.04,1.77-.05.46,0,.93,0,1.39,0,.32,0,.64,0,.96.03.59.05,1.18.14,1.77.18.46.03.52.09.51.54-.02.78-.03,1.55-.01,2.33.01.41.11.47.53.49.05,0,.09,0,.14,0,7.52,0,15.04,0,22.56,0,.4,0,.55-.11.56-.51.02-.78.01-1.55,0-2.33,0-.34.18-.53.53-.5.19.02.38.03.57.03.06,0,.16-.04.17-.07.03-.25.22-.19.37-.19,1.92-.02,3.84-.04,5.75.22.33.05.43-.09.47-.36.02-.14.02-.28.03-.42,0-1.03,0-2.07.01-3.1q0-.41.43-.41c1.13,0,2.26,0,3.38,0,.43,0,.49-.06.5-.49,0-.24,0-.47,0-.71,0-.7,0-1.4,0-2.1,0-.39.15-.6.42-.6.96-.02,1.91-.04,2.87-.04.36,0,.4-.02.4-.37,0-1.11,0-2.22-.01-3.33,0-.29.08-.37.37-.36,1.13.02,2.26.01,3.38.01.46,0,.54-.08.53-.53,0-.09,0-.17,0-.26,0-2.28,0-4.55,0-6.83,0-.4,0-.41.43-.41.69,0,1.38,0,2.08,0,.94-.02.83.14.83-.83,0-7.35,0-14.7.01-22.04,0-.67-.1-.78-.76-.79-.69,0-1.38.01-2.07.04-.63.03-.73-.05-.74-.67,0-2.18-.01-4.36-.02-6.54,0-.58-.04-.61-.61-.57-.28.02-.58.04-.84-.03-.82-.21-1.64-.19-2.53-.1Z"/></svg>