<?xml version="1.0" encoding="UTF-8"?><svg id="Layer_1" xmlns="http://www.w3.org/2000/svg" viewBox="0 0 216.82 78.12"><defs><style>.cls-1{fill:#f5b606;}.cls-2{fill:#c69009;}.cls-3{fill:#0b063f;}</style></defs><rect class="cls-2" x="8.07" y="21.83" width="200.55" height="49.06"/><path class="cls-3" d="m207.39,23.06v46.59H9.3V23.06h198.08m2.47-2.47H6.84v51.53h203.01V20.6h0Z"/><rect class="cls-1" x="8.2" y="7.23" width="200.55" height="49.06"/><path class="cls-3" d="m207.51,8.46v46.59H9.43V8.46h198.08m2.47-2.47H6.97v51.53h203.01V6h0Z"/><g id="yt1BKY.tif"><path d="m71.49,20.01h6.69v3.35c.1,0,.17,0,.24,0,.96,0,1.93,0,2.89,0,.19,0,.25.06.24.25-.01.97,0,1.94-.01,2.92,0,.06.01.11.02.2h3.33c0,.06.01.08.01.11,0,1.01,0,2.02,0,3.03,0,.14.02.2.18.2,1,0,2,0,3.01-.01.06,0,.12-.01.21-.02v-10.02h6.69c0,7.69,0,15.38,0,23.07,0,.15,0,.3,0,.44h-6.69c0-.12,0-.23,0-.35,0-.84,0-1.67-.01-2.51,0-.18,0-.35,0-.55-1.06,0-2.08,0-3.11,0-.19,0-.26-.04-.26-.25.01-.6,0-1.21,0-1.81,0-.42,0-.84,0-1.29-.15,0-.28,0-.41,0-.91,0-1.82,0-2.74,0-.16,0-.22-.04-.22-.21.01-.9.01-1.81.01-2.71,0-.15,0-.29,0-.44h-3.4c0,.05,0,.09,0,.13,0,3.14,0,6.28,0,9.43,0,.19-.04.37-.06.56h-6.65c0-.15,0-.31,0-.46,0-7.68,0-15.37,0-23.05Z"/><path d="m168.97,40.08v3.44h-10.13c0-.12,0-.23,0-.35,0-.84,0-1.67-.01-2.51,0-.18,0-.35,0-.55-1.06,0-2.08,0-3.11,0-.19,0-.26-.04-.26-.25.01-.6,0-1.21,0-1.81,0-.42,0-.84,0-1.27h-3.38c0,.08,0,.15,0,.22,0,.84,0,1.67,0,2.51,0,1.21,0,2.41,0,3.62,0,.13,0,.26.01.39h-6.69c-.01-.36-.03-.72-.03-1.08,0-2.93,0-5.86,0-8.79,0-4.47.01-8.93.02-13.4,0-.08-.02-.16-.03-.24,6.72,0,13.44,0,20.17,0v3.36c.13,0,.24,0,.34,0,.88,0,1.76,0,2.64,0,.35,0,.35,0,.34.35,0,.08,0,.15,0,.23,0,1.9,0,3.8,0,5.69,0,1.14,0,2.29,0,3.43,0,.32.01.32-.31.32-2.03,0-4.07,0-6.1,0-.24,0-.28.08-.28.3.02.96.02,1.93.01,2.89,0,.16.03.22.21.22.91,0,1.82,0,2.73,0,.14,0,.28.02.44.03v3.26h3.43Zm-10.14-10.03c.09,0,.15,0,.21,0,.97,0,1.94,0,2.91,0,.19,0,.23-.06.23-.24,0-2.06,0-4.13,0-6.19,0-.22-.06-.27-.28-.27-3.2,0-6.4,0-9.6,0-.17,0-.21.04-.21.21,0,3.22,0,6.43,0,9.65,0,.06.01.11.02.17h6.73v-3.33Z"/><path d="m121.86,20.01h20.17c0,1.02,0,2.05,0,3.07,0,.21-.07.27-.27.27-.43,0-.86,0-1.29,0-3.89,0-7.78,0-11.66,0-.19,0-.23.05-.23.24.01,2.02,0,4.04,0,6.06,0,.41,0,.41.42.41,4.26,0,8.53,0,12.79,0,.18,0,.23.05.23.23,0,.79,0,1.58,0,2.37,0,.24,0,.48,0,.74h-13.44c0,.08-.02.15-.02.21,0,2.09.01,4.19,0,6.28,0,.2.05.26.25.26,4.2,0,8.41,0,12.61,0,.19,0,.37,0,.59,0v.28c0,.9,0,1.79,0,2.69,0,.14,0,.28,0,.42h-20.12c-.01-.36-.03-.72-.03-1.08,0-2.91,0-5.81,0-8.72,0-4.49.01-8.98.02-13.47,0-.08-.02-.16-.03-.24Z"/><path d="m68.05,43.52h-20.08c0-7.84,0-15.68,0-23.51,6.72,0,13.44,0,20.17,0-.01.07-.03.15-.03.22,0,.9.01,1.79.02,2.69,0,.51.04.43-.43.43-4.25,0-8.5,0-12.75,0-.08,0-.16,0-.25,0v6.7c.07,0,.15,0,.22,0,4.3,0,8.61,0,12.91,0,.3,0,.3,0,.3.29,0,.91,0,1.82,0,2.74,0,.31,0,.31-.3.31-4.29,0-8.58,0-12.86,0-.09,0-.19,0-.27,0v6.74c.09,0,.17,0,.24,0,4.32,0,8.64,0,12.95,0,.2,0,.26.06.25.26-.01.93-.01,1.85-.02,2.78,0,.12-.04.23-.07.35Z"/><path d="m118.51,20.01c0,1.02,0,2.05,0,3.07,0,.21-.07.27-.27.27-1.72,0-3.43,0-5.15,0-.42,0-.84,0-1.29,0,0,.13,0,.25,0,.37,0,5.98,0,11.96,0,17.94,0,.51-.01,1.02-.02,1.54,0,.11-.01.22-.02.33h-6.65c0-.3-.02-.61-.02-.91,0-3.19,0-6.37,0-9.56,0-3.16-.02-6.33-.02-9.49,0-.18-.06-.21-.22-.21-2.08,0-4.16,0-6.24,0-.23,0-.28-.07-.28-.28.02-.93.02-1.85.02-2.78,0-.1-.02-.19-.02-.29h20.17Z"/><path d="m168.97,32.85c-.01-.29-.04-.58-.04-.88,0-2.52,0-5.04,0-7.56,0-.11.02-.22.03-.33v8.77Z"/></g></svg>