<?xml version="1.0" encoding="UTF-8"?><svg id="Layer_1" xmlns="http://www.w3.org/2000/svg" viewBox="0 0 87.64 102.65"><defs><style>.cls-1{fill:#f5b606;}.cls-2{stroke:#000;stroke-miterlimit:10;stroke-width:.73px;}</style></defs><polygon class="cls-1" points="13.37 47.62 20.67 47.62 28.73 51.5 28.73 18.07 32.64 14.56 40.32 14.56 40.32 10.01 43.8 6.43 53.17 10.31 62.14 13.49 62.14 26.13 70.79 29.03 74.85 43.56 74.85 71.8 70.79 75.52 70.79 84.29 66.72 87.6 64.68 95.65 32.97 95.65 32.64 88.67 24.45 75.52 16.47 59.26 13.37 53.89 13.37 47.62"/><path class="cls-2" d="m41.79,8.42v-3.84h7.67v3.9h11.54v4.15h3.94v12.2c1.14,0,2.22.02,3.3-.01.47-.01.57.16.55.63-.04.98,0,1.96-.04,2.94-.01.4.15.51.48.51.95,0,1.89,0,2.84,0,.15,0,.3,0,.51,0v8.1c.21.01.38.03.55.03,1.01,0,2.03.02,3.04,0,.37,0,.45.14.45.51-.02,11.1-.02,22.19-.03,33.29,0,.73-.02,1.45.02,2.17.03.5-.16.62-.59.61-.88-.03-1.75-.02-2.63-.01-.21,0-.42.07-.64.11,0,0,0,0,0,0-.04-.19-.13-.38-.13-.57-.01-11.08-.02-22.16-.03-33.23,0-.74-.02-1.49.02-2.23.02-.54-.23-.68-.68-.68-.79,0-1.58,0-2.37,0-.79,0-.76,0-.75-.83.01-1.98,0-3.95,0-5.93,0-1.6.06-1.41-1.38-1.41-.8,0-1.61,0-2.47,0v24.44h-3.92V12.72c-.28-.04-.49-.09-.71-.09-2.17,0-4.34,0-6.5-.01-.28,0-.48,0-.48.42.01,3.88,0,7.76,0,11.64,0,7.72,0,15.45,0,23.17,0,.05,0,.11,0,.16.02,1.19.02,1.19-1.14,1.19-.81,0-1.62-.01-2.42-.03-.13,0-.25-.07-.27-.08,0-1.88,0-3.69,0-5.5,0-10.28,0-20.55,0-30.83,0-1.18,0-2.36-.02-3.53,0-.69-.06-.74-.77-.73-1.94.02-3.89.05-5.83.05-.37,0-.74-.09-1.11-.15h0Z"/><path class="cls-2" d="m30.31,85.77c-.94.01-1.89.02-2.83.03-.33,0-.65,0-1.04,0-.02-.23-.06-.45-.06-.67,0-2.16,0-4.32,0-6.47,0-.05,0-.11,0-.16q-.03-.83-.82-.83c-1.01,0-2.03,0-3.09,0-.02-.4-.05-.77-.05-1.14,0-2.12-.02-4.24.01-6.36,0-.54-.18-.67-.66-.66-.86.03-1.72-.01-2.58,0-.4,0-.52-.13-.52-.57.01-2.34-.01-4.68,0-7.02,0-.43-.1-.56-.52-.55-.98.03-1.96-.02-2.94,0-.35,0-.44-.12-.43-.48.02-1.01-.02-2.03,0-3.05,0-.39-.14-.52-.47-.52-.96,0-1.93-.02-2.89-.03-.1,0-.2-.02-.37-.05,0-.57,0-1.13,0-1.68,0-3.32,0-6.64-.02-9.95,0-.31.11-.38.35-.38.48,0,.96-.05,1.44-.05,2.63,0,5.26,0,7.9-.01.55,0,1.1,0,1.69,0,.01.21.03.34.03.48,0,1.03,0,2.07-.03,3.1,0,.39.14.5.49.5,1.05-.02,2.1,0,3.15-.04.11,0,.29-.2.31-.33.04-.38.01-.76.01-1.14,0-9.99,0-19.98.01-29.97,0-1.07.02-1.07,1.03-1.06.91,0,1.81,0,2.79,0,0,.7,0,1.37,0,2.03,0,6.35.02,12.69.02,19.04,0,8.92-.01,17.84-.03,26.76,0,1.11.11.94-.91.95-.93,0-1.85,0-2.88,0-.02-.24-.05-.51-.05-.79,0-3.57-.01-7.14.01-10.72,0-.55-.14-.72-.67-.7-1.04.04-2.09.01-3.24.01,0-1.19-.02-2.31.01-3.43.02-.54-.15-.66-.65-.66-2.1.02-4.2-.02-6.3-.03-.76,0-.75,0-.75.79,0,2.27.01,4.53-.02,6.8,0,.47.18.56.54.56.95,0,1.89.03,2.84.03.39,0,.54.13.52.58-.04.92,0,1.85-.03,2.77-.02.55.19.67.66.66.93-.02,1.86.03,2.78.03.36,0,.46.16.46.53-.01,2.12,0,4.24,0,6.36,0,.16,0,.33-.02.49-.1.75-.06.78.67.76.91-.02,1.82.02,2.73.02.35,0,.48.14.47.52-.02,2.32,0,4.64-.03,6.96,0,.5.13.62.58.61.93-.01,1.85.04,2.78.06.37,0,.51.16.5.56-.02,2.36-.01,4.71-.01,7.07,0,.15.07.3.11.45h.01Z"/><path class="cls-2" d="m30.3,85.79c.99,0,1.99,0,2.98.03.79.01.8.03.8.86-.01,2.3-.03,4.6-.02,6.91,0,.13.22.35.35.36.51.04,1.03,0,1.55,0,9.41,0,18.82,0,28.23,0,.24,0,.47,0,.75,0,0-.61,0-1.15,0-1.69,0-1.98,0-3.95,0-5.93,0-.29.03-.5.37-.5,1.13,0,2.26,0,3.44,0v12.23H30.25c0-.4,0-.81,0-1.22,0-3.57-.02-7.14-.02-10.72,0-.12.05-.24.08-.36,0,0-.01.01-.01.01Z"/><path class="cls-2" d="m41.78,8.41c0,1.27-.02,2.53-.02,3.8,0,11.96,0,23.93,0,35.89,0,1.08,0,1.09-1.04,1.1-.72,0-1.44,0-2.17,0-.22,0-.44-.04-.64-.06,0-.98,0-1.92,0-2.85,0-9.66,0-19.32,0-28.98,0-.51-.14-.65-.61-.64-2.35.02-4.7,0-7.07,0,0-1.22-.01-2.41.01-3.6,0-.13.2-.33.33-.36.33-.07.68-.08,1.03-.08,2.09,0,4.19,0,6.36,0,0-.93,0-1.83,0-2.73,0-1.42,0-1.42,1.36-1.43.82,0,1.65-.02,2.47-.04,0,0-.01-.01-.01-.01Z"/><path class="cls-2" d="m72.76,73.71c-.06.21-.16.41-.16.62,0,3.62,0,7.24,0,10.86,0,.44-.09.62-.54.61-.94-.02-1.89-.01-2.83.02-.43.01-.41-.26-.41-.56,0-3.49,0-6.99-.02-10.48,0-1.15,0-1.17,1.13-1.17.94,0,1.88.07,2.82.11,0,0,0,0,0,0Z"/></svg>