<?xml version="1.0" encoding="UTF-8"?><svg id="Layer_1" xmlns="http://www.w3.org/2000/svg" viewBox="0 0 87.64 128.59"><defs><style>.cls-1{font-family:PixelEmulator, 'Pixel Emulator';font-size:21.97px;}.cls-2{fill:#f5b606;}.cls-3{stroke:#000;stroke-miterlimit:10;stroke-width:.98px;}</style></defs><text class="cls-1" transform="translate(12.59 121.27)"><tspan x="0" y="0">rock</tspan></text><polygon class="cls-2" points="7.17 37.89 12.35 32.95 17.62 30.19 17.62 15.68 23.23 10.48 33.59 15.41 39.34 10.48 49.65 15.41 55.14 10.48 64.68 15.96 68.3 21.44 74.45 27.3 77.43 31 80.22 58.17 75.56 67.49 69.86 87.77 67.79 93.8 23.75 92.16 7.17 48.81 7.17 37.89"/><path class="cls-3" d="m72.34,24.52c-1.46.04-2.91.11-4.37.12-.94.01-.93-.02-.93.99,0,3.11-.03,6.22-.01,9.33,0,.51-.13.68-.62.68-1.48-.03-2.95,0-4.55,0,0-1.57,0-3.06,0-4.55,0-5.56-.03-11.12-.01-16.68,0-.72-.31-.8-.84-.8-2.99,0-5.98,0-8.97-.02-.53,0-.61.24-.61.71.01,4.04.01,8.08.01,12.12,0,1-.01,2.01.03,3.01.02.45-.12.63-.54.63-1.39,0-2.78,0-4.17,0-.41,0-.57-.11-.55-.65.07-1.93.07-3.87.07-5.8,0-3.06-.03-6.12-.01-9.18,0-.64-.23-.81-.77-.81-3.01,0-6.03,0-9.04-.02-.49,0-.63.21-.63.71.02,5.05.02,10.09.05,15.14,0,.46-.16.62-.56.62-1.41,0-2.83,0-4.24.01-.38,0-.43-.18-.43-.55.02-4.92.03-9.85.02-14.77,0-1.06-.09-1.13-1.07-1.13-2.85,0-5.7,0-8.56-.02-.61,0-.79.18-.79.83.02,12.32.01,24.64.02,36.96,0,.54-.16.73-.68.72-1.48-.03-2.96-.01-4.54-.01,0-.55,0-1.03,0-1.51-.01-4.73-.03-9.45-.02-14.18,0-.63-.2-.79-.76-.78-1.43.04-2.87.01-4.36.01,0-1.36,0-2.66,0-3.95,0-1.52,0-1.53,1.43-1.57,1.07-.03,2.13-.02,3.2,0,.32,0,.53-.03.53-.46-.04-2.35-.08-4.7-.09-7.05-.02-2.72.01-5.44-.02-8.16,0-.59.17-.78.7-.77,1.27.01,2.55-.02,3.82-.02.79,0,.86-.08.85-.92-.02-1.27-.04-2.55,0-3.82,0-.18.23-.45.4-.52.27-.1.59-.09.89-.09,2.74,0,5.47-.01,8.21,0,.85,0,.84.05.81.92-.04,1.32-.04,2.64,0,3.96,0,.17.33.46.51.46,1.37.03,2.73,0,4.1,0,.54,0,.71-.25.7-.82-.04-1.3,0-2.6-.04-3.89,0-.39.11-.54.46-.56.25-.01.51-.08.76-.08,2.83,0,5.66.02,8.49,0,.57,0,.7.23.68.79-.05,1.32-.02,2.64-.05,3.97,0,.41.1.59.5.59,1.39-.01,2.78-.02,4.17-.02.46,0,.65-.21.64-.72-.03-1.32,0-2.64-.03-3.97,0-.38.09-.55.44-.57.32-.02.65-.08.97-.08,2.67,0,5.33,0,8,0,.29,0,.59.03.93.05,0,1.54.04,3.01-.02,4.47-.03.71.19.86.83.83,1.27-.05,2.55,0,3.82-.01.42,0,.55.15.54.6-.03,1.59-.01,3.18-.01,4.86h5.33v5.43l.02-.02Z"/><path class="cls-3" d="m14.87,68.59c1.66.01,3.32,0,4.98.06.13,0,.36.41.36.63.04,1.4.03,2.79.02,4.19,0,1.79.02,3.58-.04,5.36-.02.58.2.68.63.68,1.21,0,2.41,0,3.62.02.98.02.98.05.97,1.1-.02,3.09-.01,6.17-.04,9.26,0,.51.21.64.62.64.72,0,1.44,0,2.16,0,12.69,0,25.37,0,38.06.02.61,0,.84-.13.83-.85-.05-3.11-.03-6.22-.06-9.33,0-.57.16-.81.7-.81,1.5.01,3,0,4.55,0v16.54H20.27v-16.58c-.83,0-1.57,0-2.3,0-.79,0-1.58-.03-2.36-.02-.54,0-.69-.25-.69-.81.02-3.11.01-6.22,0-9.33,0-.27-.03-.53-.04-.8l-.02.02Z"/><path class="cls-3" d="m72.32,24.54c.78.03,1.56.08,2.35.09.9.02,1.79,0,2.75,0,0,1.68.03,3.21-.01,4.75-.02.59.15.76.7.75,1.37-.03,2.73.01,4.1.01.44,0,.65.12.65.67-.02,10.5-.01,21.01-.01,31.51,0,.19-.03.38-.06.74-1.26,0-2.51.01-3.75,0-1.61-.02-1.61-.04-1.61,1.63,0,4.68-.02,9.35,0,14.03,0,.66-.18.84-.78.82-1.43-.04-2.87-.01-4.38-.01,0-.51,0-.98,0-1.46,0-4.68,0-9.35-.03-14.03,0-.75.2-.99.89-.97,1.11.03,2.23-.02,3.34,0,.91,0,1.01-.08,1-1.06-.01-1.91-.04-3.82-.04-5.73,0-8.42-.01-16.84.01-25.26,0-.7-.15-.95-.85-.91-1.13.06-2.27,0-3.41-.02-.32,0-.63-.05-.93-.08,0-1.64,0-3.2,0-4.75,0-.24.05-.48.08-.72,0,0-.02.02-.02.02Z"/><path class="cls-3" d="m14.89,68.57h-5.02c0-.68,0-1.26,0-1.84-.02-2.81-.05-5.63-.05-8.44,0-.59-.23-.76-.74-.75-1.23,0-2.46-.02-3.68-.02-.37,0-.62-.06-.62-.56.01-6.98.01-13.96.02-20.93,0-.12.04-.23.07-.38h4.88v21.81c.4.04.73.09,1.06.09,1.23.03,2.45.02,3.68.08.19.01.53.36.53.55,0,3.42-.05,6.85-.09,10.27,0,.04-.04.09-.06.13.06.54.02-.02.02-.02Z"/></svg>