<?xml version="1.0" encoding="UTF-8"?><svg id="Layer_1" xmlns="http://www.w3.org/2000/svg" viewBox="0 0 76.18 102.65"><defs><style>.cls-1{fill:#f5b606;}.cls-2{stroke:#000;stroke-miterlimit:10;stroke-width:.78px;}</style></defs><polygon class="cls-1" points="7.4 53.3 16.38 46.92 13.27 37.51 9.61 17.08 8.57 9.89 11.88 6.37 19.52 9.37 23.17 22.92 28.9 40.12 32.31 31.49 40.72 6.37 49.75 9.89 49.75 19.4 45.78 25.81 45.78 35.91 53.4 39.6 59.13 41.16 66.43 48.46 66.43 72.39 62.78 74 59.66 87.03 56.53 96.41 21.02 96.41 16.91 81.82 11.88 73 7.4 61.82 7.4 53.3"/><path class="cls-2" d="m31.62,34.14c0,1.25.01,2.49.01,3.74,0,2.67-.01,5.33-.01,8,0,1.03.02,1.04-1.02,1.06-.91.02-1.82-.01-2.73.01-.44.01-.53-.17-.53-.58.02-3.67.02-7.33.02-11,0-.34-.03-.67-.05-1.17h-4.19c0-1.46,0-2.75,0-4.05,0-2.68-.03-5.37-.01-8.05,0-.46-.17-.6-.6-.6-1,.01-2.01,0-3.01,0-.22,0-.44-.04-.65-.07.03-.46.07-.87.07-1.28-.01-3.55-.04-7.11-.04-10.66,0-.47-.08-.69-.65-.68-2.4.03-4.81,0-7.21-.03-.52,0-.66.15-.65.69.05,3.63.06,7.26.07,10.89,0,.34-.05.67-.08,1.06.17.02.31.04.45.04,1.08,0,2.16,0,3.24,0,.41,0,.61.13.61.59-.02,5.35-.02,10.7-.03,16.05,0,.13,0,.26,0,.4,0,0,.01-.01.01-.01h-4.2c0-.47,0-.9,0-1.33,0-4.8,0-9.6,0-14.4,0-1.28,0-1.28-1.31-1.29-.78,0-1.55-.03-2.33,0-.44.01-.59-.12-.59-.58.02-3.84.01-7.67,0-11.51,0-.4.14-.55.51-.55,1.04,0,2.08-.05,3.12-.02.49.01.62-.17.61-.62-.03-1-.01-2-.04-3,0-.33.06-.5.42-.5,2.61.01,5.22.02,7.84.03.05,0,.11.03.22.06,0,.24,0,.5,0,.75-.02.93-.01,1.85-.06,2.78-.02.41.12.52.51.51,1.12,0,2.23.03,3.35.03.37,0,.43.16.43.49-.02,3.61-.04,7.22-.04,10.83,0,1.36.03,1.36,1.39,1.36.8,0,1.59.03,2.39,0,.41,0,.51.15.5.54-.01,3.97,0,7.94,0,11.91,0,.05.02.11.03.2h4.27l-.02-.02Z"/><path class="cls-2" d="m18.95,85.13c1.14,0,2.27-.01,3.41.01.79.02.79.05.78.81-.01,2.42-.03,4.84-.02,7.26,0,.13.19.34.32.38.23.07.49.02.73.02,10.7,0,21.41,0,32.11,0,.26,0,.52-.04.8-.06,0-2.62,0-5.19,0-7.76,0-.27-.08-.62.36-.62,1.28,0,2.56,0,3.87,0,.01.24.03.43.03.61,0,3.84-.01,7.68,0,11.52,0,.51-.12.66-.66.66-13.66-.02-27.32-.01-40.98-.01-.24,0-.48,0-.76,0,0-.16-.02-.27-.02-.37,0-4.03,0-8.06,0-12.08,0-.13.03-.26.04-.39,0,0-.02.01-.02.01Z"/><path class="cls-2" d="m52.79,38.52h8.57c0,1.2.04,2.37-.01,3.53-.02.57.18.71.71.7,1-.01,2.01.04,3.01.04.39,0,.53.11.52.52-.03,1.06.01,2.12-.01,3.18-.01.43.16.51.53.51,1.1-.02,2.2,0,3.29-.02.43-.01.59.1.59.57-.03,7.26-.04,14.52-.05,21.78,0,.79-.02,1.59.04,2.38.05.6-.19.75-.74.72-.96-.04-1.93-.02-2.9-.02-.74,0-.78.02-.78.75,0,3.48,0,6.96,0,10.44,0,.19,0,.38,0,.57.01.97.18.95-.99.98-.89.02-1.78,0-2.67.01-.39,0-.52-.12-.51-.52.01-3.67,0-7.33,0-11,0-1.2,0-1.2,1.19-1.21.83,0,1.67,0,2.5.02.4.01.53-.14.53-.53,0-7.14,0-14.29,0-21.43,0-.93-.03-1.85.01-2.78.03-.6-.24-.75-.77-.74-.97.02-1.93,0-2.9,0-.47,0-.64-.1-.6-.64.08-1.03.01-2.08.02-3.12,0-.48-.35-.44-.63-.44-.91,0-1.82.02-2.73.04-.28,0-.56,0-.89,0v8.41h-4.23c0-.18-.02-.34-.02-.5,0-3.72,0-7.45-.02-11.17,0-.34-.05-.68-.07-1.02v.02Z"/><path class="cls-2" d="m52.8,38.5h-8.43c0,.79,0,1.52,0,2.25.01,1.93.03,3.85.02,5.78,0,.13-.23.36-.35.36-1.21.03-2.42.03-3.63,0-.12,0-.33-.24-.33-.36,0-1.15.04-2.3.04-3.46,0-2.78-.01-5.56-.04-8.33,0-.39.18-.49.51-.5,1.1-.03,2.19-.07,3.29-.08.39,0,.55-.07.52-.54-.06-.84.04-1.7.03-2.55-.02-2.99-.05-5.97-.1-8.96,0-.42.11-.6.51-.61,1.04-.02,2.08-.07,3.12-.04.51.01.65-.16.65-.65-.02-3.8-.03-7.6-.01-11.4,0-.53-.22-.64-.67-.64-2.57,0-5.15-.01-7.72-.02,0,0,.02.01.02.01-.02-1.25-.05-2.49-.04-3.74,0-.12.23-.35.36-.35,2.57-.02,5.15-.02,7.72-.03.38,0,.35.25.35.51,0,1.04,0,2.08-.02,3.12-.01.41.13.52.52.51,1.08-.02,2.16.02,3.24,0,.36,0,.49.1.49.49-.01,3.88-.01,7.75,0,11.63,0,.44-.15.54-.56.54-1.06-.02-2.12.02-3.18,0-.36,0-.5.11-.5.49,0,4.06,0,8.13,0,12.29h4.19c0,1.49,0,2.88,0,4.27,0,0,.01-.01.01-.01Z"/><path class="cls-2" d="m10.31,68.1c-1.08,0-2.16.02-3.23.02-.86,0-.87-.01-.87-.86,0-3.99,0-7.97,0-11.96,0-1.34,0-2.68,0-4.07h4.22c0-.54,0-1.02,0-1.51,0-.76.02-1.51-.01-2.27-.02-.36.12-.46.45-.46,1.08,0,2.16-.04,3.23-.03.42,0,.55-.1.54-.54-.03-2.64-.02-5.29-.02-7.93,0,0-.01.01-.01.01,1.3,0,2.61-.01,3.91-.03.3,0,.39.14.39.42-.02,7.8-.03,15.61-.04,23.41q0,1.62-1.63,1.62c-.83,0-1.66,0-2.57,0-.02-.22-.06-.47-.06-.72,0-3.78-.01-7.56,0-11.34,0-.53-.16-.68-.68-.66-1.15.04-2.31.01-3.51.01-.03.27-.07.5-.07.74.02,5.03.04,10.05.06,15.08,0,.35-.07.71-.11,1.07,0,0,.01-.01.01-.01Z"/><path class="cls-2" d="m31.64,34.16c0-2.78.02-5.55.03-8.33,0-1.23.02-2.46-.01-3.68-.01-.46.15-.6.57-.59,1.04,0,2.08-.04,3.12,0,.45.01.61-.14.6-.58-.02-3.87-.03-7.75-.07-11.62,0-.39.13-.5.48-.5,1.29-.01,2.57-.03,3.86-.05,0,0-.02-.01-.01-.01-.02.58-.06,1.16-.06,1.75,0,3.48,0,6.96,0,10.44,0,.41-.17.53-.54.53-1.04,0-2.08.02-3.13,0-.46,0-.63.13-.63.62.02,3.82,0,7.64.03,11.46,0,.46-.12.65-.59.65-1.1,0-2.2.02-3.3.02-.13,0-.25-.06-.38-.1,0,0,.02.01.02.01Z"/><path class="cls-2" d="m18.97,85.11h-4.27c-.02-.25-.06-.48-.06-.72,0-2.29,0-4.58,0-6.86,0-.91-.02-.91-.9-.91-1.08,0-2.15,0-3.24,0-.06-2.88-.12-5.7-.18-8.53,0,0-.01.01-.01.01,1.27.03,2.53.06,3.79.07.42,0,.55.16.55.58-.02,2.43,0,4.87-.04,7.3,0,.48.18.57.59.57,1.04,0,2.08.03,3.12.03.47,0,.6.23.6.67-.02,2.4-.03,4.79-.03,7.19,0,.2.05.41.08.61,0,0,.02-.01.02-.01Z"/></svg>