<?xml version="1.0" encoding="UTF-8"?><svg id="Layer_1" xmlns="http://www.w3.org/2000/svg" viewBox="0 0 246.15 139.39"><defs><style>.cls-1{fill:#f5b606;}.cls-2{fill:#6ae6ea;}.cls-3,.cls-4{fill:#250349;}.cls-4{stroke:#250349;stroke-miterlimit:10;stroke-width:.22px;}</style></defs><path class="cls-4" d="m187.11,122.33h-13.01c0-.2-.02-.4-.02-.59-.01-1.51-.02-3.02-.03-4.53,0-.09-.01-.18-.02-.29-1.34,0-2.65,0-3.97,0-.25,0-.33-.06-.33-.39.02-1.53,0-3.07,0-4.6,0-.1-.01-.21-.02-.32h-4.3c0,.14-.01.25-.01.37,0,2.48.01,4.96.02,7.44,0,.97-.02,1.93-.03,2.9h-8.54c-.02-.27-.04-.55-.04-.82,0-11.83,0-23.65,0-35.48,0-.37,0-.74-.01-1.11,8.63,0,17.26,0,25.9,0v5.33c.14,0,.25,0,.35,0,1.17,0,2.34,0,3.51,0,.42,0,.42,0,.42.53,0,5.01,0,10.02,0,15.03,0,.36-.1.41-.35.41-2.64,0-5.28,0-7.92,0h-.35c0,.1-.02.16-.02.21,0,1.64,0,3.28,0,4.93,0,.28.12.27.27.27,1.14,0,2.28,0,3.42.02.21,0,.42.02.66.04v5.22h4.45c0,.08.02.14.02.19,0,1.5,0,3,0,4.49,0,.25-.04.5-.06.74Zm-13.03-16.14c0-.1.01-.17.01-.23-.01-1.55-.02-3.09-.04-4.64,0-.31.04-.44.33-.43,1.24.02,2.48,0,3.71,0,.19,0,.27-.06.27-.32,0-3.32,0-6.64,0-9.96,0-.27-.04-.38-.28-.38-4.13,0-8.26,0-12.39,0-.22,0-.27.08-.27.35,0,5.13,0,10.26-.01,15.39,0,.07.01.14.02.22h8.66Z"/><path class="cls-4" d="m203.79,59.59h-8.59c-.02-.57-.04-1.15-.04-1.72,0-6.47,0-12.94,0-19.42,0-.26-.07-.32-.26-.32-1.06,0-2.13,0-3.19,0-.28,0-.56,0-.87,0v5.32h-4.28c0-.14-.01-.25-.01-.37,0-1.46,0-2.92-.01-4.39,0-.59.07-.55-.43-.55-1.21,0-2.42,0-3.63,0-.07,0-.15,0-.23.01,0,.08-.01.14-.01.2,0,6.71,0,13.42,0,20.14,0,.37-.03.73-.04,1.1h-8.59c0-.2.02-.41.02-.61,0-1.15-.02-2.3-.02-3.45,0-10.3,0-20.61,0-30.91,0-.81,0-1.63,0-2.44,2.88,0,5.77,0,8.65,0,0,.06-.02.12-.02.18,0,1.64,0,3.28,0,4.92,0,.07.02.13.03.23.15,0,.28,0,.42,0,1.17,0,2.34.01,3.51,0,.26,0,.34.09.33.4-.01,1.28,0,2.56,0,3.85,0,.34,0,.69,0,1.05h4.33v-.4c0-1.5,0-3,0-4.49,0-.32.07-.41.33-.41,1.23.01,2.46,0,3.68,0,.24,0,.31-.07.31-.38,0-1.52.01-3.04.02-4.57,0-.13-.02-.26-.03-.39,2.88,0,5.77,0,8.65,0,0,.55,0,1.1,0,1.65,0,10.85,0,21.71,0,32.56,0,.87,0,1.75,0,2.62,0,.19.01.39.02.58Z"/><path class="cls-4" d="m20.75,59.59h-8.53V22.17h8.59v21.28h4.38c0-.12.02-.23.02-.33,0-1.55.02-3.09.01-4.64,0-.32.08-.4.33-.4,1.23.01,2.46.02,3.69,0,.28,0,.34.11.34.43-.01,1.53,0,3.07-.01,4.6,0,.25.07.3.25.3,1.24.02,2.48.04,3.71.06.09,0,.19-.01.3-.02v-21.28h8.59c0,12.24,0,24.47,0,36.71,0,.23,0,.47,0,.7h-8.59c0-.19-.01-.37-.01-.56,0-1.33-.01-2.66-.02-3.99,0-.28,0-.56,0-.87-1.36,0-2.67,0-3.99,0-.25,0-.34-.07-.33-.4.02-.96.01-1.92.01-2.88,0-.67,0-1.34,0-2.02h-4.33c0,.18,0,.34,0,.49,0,1.47,0,2.95,0,4.42,0,.26-.04.39-.29.39-1.24-.03-2.48-.02-3.72-.05-.28,0-.34.11-.34.43.01,1.38.01,2.76,0,4.14,0,.3-.05.59-.07.89Z"/><path class="cls-4" d="m92.12,84.91h8.59v5.34c.18,0,.31,0,.45,0,1.19,0,2.38,0,3.57-.01.22,0,.31.07.31.36-.01,1.52,0,3.04,0,4.57,0,.12,0,.23,0,.37h4.33c0-.1.01-.17.01-.24,0-1.55,0-3.09-.02-4.64,0-.35.09-.42.34-.42,1.23.01,2.46,0,3.68,0,.09,0,.19-.01.34-.02v-5.31h8.59c0,11.28,0,22.56,0,33.84,0,1.19-.04,2.38-.06,3.58h-8.54c-.01-.83-.03-1.67-.03-2.5,0-6.2-.02-12.4-.01-18.59,0-.3-.07-.36-.29-.36-1.26.01-2.52,0-3.77,0-.08,0-.16.01-.29.03v5.31c-1.37,0-2.7,0-4.02,0-.22,0-.23-.14-.23-.34,0-1.55-.01-3.09,0-4.64,0-.28-.04-.37-.28-.37-1.04.02-2.09,0-3.13,0-.3,0-.59,0-.92,0v.5c0,6.77,0,13.55,0,20.32,0,.21-.04.43-.06.64h-8.54c0-.23,0-.46,0-.69,0-12.24,0-24.48,0-36.72Z"/><path class="cls-4" d="m87.7,122.33h-8.48c-.02-.31-.05-.62-.06-.93,0-3.15,0-6.31,0-9.46,0-.1,0-.21-.02-.35-.15,0-.29,0-.42,0-4.06,0-8.13,0-12.19,0-.25,0-.33.06-.33.39,0,2.97,0,5.95,0,8.92,0,.48-.03.95-.04,1.43h-8.54c-.01-.44-.04-.88-.04-1.32,0-8.31,0-16.62,0-24.93,0-.16,0-.33,0-.53h4.34v-5.3c.12,0,.22,0,.31,0,1.25,0,2.5,0,3.75,0,.14,0,.25.01.25-.23,0-1.7-.01-3.4-.02-5.11h12.89v5.31c.14,0,.24.02.35.02,1.23,0,2.46,0,3.69,0,.26,0,.33.09.33.41-.01,1.53-.01,3.07-.01,4.6,0,.09.01.18.02.32h4.29c0,.16,0,.28,0,.4,0,2.49.02,4.99.02,7.48,0,6.07,0,12.13-.02,18.2,0,.22-.04.45-.07.67Zm-21.48-16.15h12.93v-10.62c-.13,0-.23,0-.34,0-1.22,0-2.44,0-3.66,0-.21,0-.29-.05-.29-.33,0-1.55-.01-3.09,0-4.64,0-.28-.04-.38-.28-.37-1.21.01-2.42,0-3.63,0-.13,0-.27,0-.43,0v5.35h-4.3v10.61Z"/><path class="cls-4" d="m143.4,59.59c0-.2.02-.41.02-.61,0-1.4-.01-2.81-.02-4.21,0-.19,0-.37,0-.6h-4.34v-26.65c.13,0,.25-.02.37-.02,1.23,0,2.46,0,3.69,0,.21,0,.28-.05.28-.34-.01-1.67,0-3.33,0-5h21.54c0,1.69,0,3.38,0,5.07,0,.24.09.27.25.27,1.26,0,2.52,0,3.77,0,.09,0,.18,0,.29,0,.01.15.02.26.02.37,0,3.63-.01,7.26-.01,10.9,0,5.03,0,10.07.01,15.1,0,.24-.07.3-.26.3-1.27,0-2.53.01-3.8,0-.22,0-.27.09-.27.35,0,1.46,0,2.92,0,4.39,0,.22-.04.45-.06.67h-21.48Zm17.23-32.09h-12.94c0,.64,0,1.25,0,1.86,0,8.16,0,16.33,0,24.49,0,.25.03.36.27.36,4.15,0,8.3,0,12.45,0,.07,0,.15-.01.22-.02v-26.68Z"/><path class="cls-4" d="m31.73,122.33c0-.21,0-.41,0-.62v-4.81c-.21,0-.4,0-.59,0-1.13,0-2.26,0-3.4.04-.28,0-.36-.09-.35-.44.02-1.53,0-3.07,0-4.6,0-.08-.01-.16-.02-.29-.15,0-.3,0-.44,0-1.18,0-2.36,0-3.54,0-.22,0-.3-.05-.3-.36.01-4.22.01-8.44.01-12.66,0-.99,0-1.98,0-3.01h4.3c0-.16.02-.29.02-.42,0-1.51-.01-3.02-.03-4.53,0-.31.08-.39.32-.38,1.23.01,2.46,0,3.69,0,.1,0,.19,0,.34,0v-5.33h21.54c0,1.62,0,3.24,0,4.86,0,.46,0,.47-.38.47-5.52,0-11.03,0-16.55,0-.1,0-.2.01-.31.02,0,.11-.01.18-.01.25,0,1.56,0,3.12,0,4.68,0,.3-.07.39-.31.39-1.22-.01-2.44,0-3.66,0-.1,0-.2,0-.31,0v16.06c1.33,0,2.63.01,3.94,0,.28,0,.34.11.34.43-.01,1.52,0,3.05,0,4.57,0,.23.03.34.25.34,2.6-.01,5.21-.01,7.81-.01.18,0,.36,0,.57,0v-10.74h-4.3v-5.31c.16,0,.31,0,.45,0,1.69,0,3.39,0,5.08,0,2.36,0,4.72,0,7.08,0,.23,0,.33.07.32.38-.02.47,0,.93,0,1.4,0,6.33,0,12.66,0,18.99,0,.22,0,.44,0,.66h-21.54Z"/><path class="cls-4" d="m46.71,22.17h25.9c0,1.64,0,3.29,0,4.93,0,.31-.08.39-.31.39-.56-.01-1.12,0-1.68,0-4.99,0-9.98,0-14.98,0-.24,0-.3.08-.3.38.01,3.21.01,6.43.01,9.64,0,.66,0,.65.54.65,5.48,0,10.95,0,16.43,0,.23,0,.3.08.29.36-.01,1.26,0,2.52,0,3.78v1.17h-17.25c0,.13-.02.23-.02.34,0,3.33.01,6.67,0,10,0,.32.06.41.32.41,5.4,0,10.8,0,16.2,0,.24,0,.48,0,.75,0v.44c0,1.43,0,2.85,0,4.28,0,.22,0,.45,0,.67h-25.84c-.02-.57-.04-1.15-.04-1.72,0-4.66,0-9.32,0-13.99,0-7.11.02-14.21.02-21.32,0-.13-.02-.26-.03-.39Z"/><path class="cls-4" d="m152.45,122.33h-25.78c-.02-.27-.04-.55-.04-.82,0-11.83,0-23.65,0-35.48,0-.37,0-.74-.01-1.11,8.63,0,17.26,0,25.9,0,0,1.55,0,3.09,0,4.64,0,.78.11.68-.55.68-5.47,0-10.94,0-16.4,0-.24,0-.33.05-.32.39.02,3.19.01,6.38.01,9.57,0,.72,0,.71.56.71,5.46,0,10.92,0,16.37-.01.27,0,.34.1.34.43-.01,1.51,0,3.02,0,4.53,0,.12,0,.23-.01.36-.16,0-.29,0-.43,0-5.48,0-10.95,0-16.43,0-.43,0-.42,0-.42.55,0,3.27.01,6.55,0,9.82,0,.33.1.37.32.37,5.43,0,10.86,0,16.29,0,.22,0,.44,0,.62,0v5.39Z"/><path class="cls-3" d="m233.98,22.17c0,.19-.02.38-.02.57,0,1.46,0,2.93.02,4.39,0,.28-.07.37-.3.37-5.44,0-10.88,0-16.31-.01-.2,0-.4,0-.65,0,0,.16,0,.3,0,.44,0,3.15,0,6.31,0,9.46,0,.77,0,.77.63.77,5.43,0,10.86,0,16.29,0,.24,0,.34.07.34.4-.02,1.53,0,3.07-.01,4.6,0,.09-.01.19-.02.31h-17.22c0,.17-.02.31-.02.45,0,3.32,0,6.64,0,9.96,0,.24.04.34.26.33,5.56-.01,11.13-.01,16.69-.02.25,0,.34.06.33.39-.02,1.46-.02,2.93-.02,4.39,0,.21.01.41.02.62h-25.84c-.01-.39-.04-.79-.04-1.18,0-11.53,0-23.05,0-34.58,0-.55-.01-1.1-.02-1.65,8.63,0,17.26,0,25.9,0Z"/><path class="cls-4" d="m195.65,84.91h17.25v5.33c.15,0,.27,0,.38,0,1.19,0,2.38.01,3.57,0,.28,0,.34.12.34.43-.01,1.49-.02,2.97,0,4.46,0,.36-.09.44-.36.44-2.64-.01-5.28,0-7.93,0h-.32c0-.16-.02-.28-.02-.4,0-1.51-.01-3.02,0-4.53,0-.32-.07-.4-.33-.4-2.69,0-5.38,0-8.07,0-.07,0-.15.02-.24.03v10.64c.12,0,.23,0,.34,0,5.53,0,11.05,0,16.58,0,.27,0,.34.1.34.43-.01,1.53,0,3.07,0,4.6,0,.09.01.18.02.29h4.29v10.65c-.11,0-.21.02-.32.02-1.25.01-2.49.02-3.74.02-.21,0-.27.08-.25.33.02.3,0,.6,0,.9-.01,1.4-.03,2.79-.04,4.19h-21.48c0-.22,0-.44,0-.66,0-1.47-.01-2.95-.02-4.42,0-.1-.01-.21-.02-.34h-4.28v-5.36c.16,0,.29,0,.42,0,2.64,0,5.28,0,7.92,0,.29,0,.34.13.33.44-.03,1.25-.04,2.49-.05,3.74,0,.39,0,.79,0,1.2.09,0,.18.02.26.02,4.12,0,8.24,0,12.36,0,.28,0,.33-.1.33-.42,0-3.31,0-6.62,0-9.93v-.38c-.15,0-.28,0-.4,0-5.51,0-11.01,0-16.52,0-.24,0-.34-.05-.34-.39,0-1.53-.01-3.07,0-4.6,0-.3-.07-.36-.3-.36-1.24.02-2.48,0-3.71.02-.28,0-.34-.09-.34-.42,0-3.27,0-6.55,0-9.82,0-.13.01-.25.02-.41.19,0,.36,0,.52,0,1.17,0,2.34-.01,3.51,0,.24,0,.28-.09.28-.37,0-1.65.01-3.31.02-4.96Z"/><path class="cls-4" d="m127.9,22.17v5.34c.15,0,.28,0,.41,0,1.2,0,2.4,0,3.6-.02.24,0,.29.1.29.37,0,1.55,0,3.09,0,4.64,0,.2-.02.31-.22.31-2.75,0-5.5,0-8.24,0-.04,0-.07-.01-.15-.03,0-.46,0-.91,0-1.36,0-1.2,0-2.4,0-3.6,0-.24-.05-.34-.26-.34-2.74,0-5.48,0-8.21-.01-.05,0-.09.01-.18.03,0,.24,0,.48,0,.72,0,1.4,0,2.81,0,4.21,0,.32-.08.4-.33.4-1.21-.02-2.42,0-3.63,0h-.34c-.01.12-.03.21-.03.3,0,4.78.02,9.57.03,14.35,0,.36.02.72,0,1.08-.01.26.06.33.26.32,1.25,0,2.5.01,3.74,0,.25,0,.3.09.3.39-.01,1.56,0,3.12,0,4.68,0,.21.06.27.22.27,2.71,0,5.42-.01,8.13,0,.25,0,.3-.12.3-.4,0-1.52,0-3.05-.01-4.57,0-.31.09-.36.3-.36,2.69,0,5.38.01,8.07,0,.19,0,.25.08.25.31,0,1.55,0,3.09,0,4.64,0,.3-.09.35-.31.35-1.25-.02-2.5-.03-3.74-.03-.08,0-.15.01-.26.03v.4c0,1.47,0,2.95,0,4.42,0,.2,0,.4,0,.6h-17.25c0-.2.02-.41.02-.61,0-1.4-.01-2.81-.02-4.21,0-.19,0-.38,0-.59h-4.33v-5.3c-.15,0-.27-.02-.39-.02-1.21,0-2.42,0-3.63,0-.21,0-.29-.07-.29-.34.01-5.19.02-10.38.03-15.58,0-.02,0-.05.02-.11h4.24v-5.31c.15,0,.27-.02.39-.02,1.23,0,2.46,0,3.69,0,.21,0,.28-.05.28-.33-.01-1.67,0-3.33,0-5h17.25Z"/><path class="cls-4" d="m76.96,59.59c-.02-1.84-.04-3.69-.05-5.53,0-10,0-19.99,0-29.99,0-.63,0-1.27,0-1.9,2.88,0,5.77,0,8.65,0,0,.15-.03.31-.03.46,0,.36.02.72.02,1.08,0,9.76,0,19.51,0,29.27,0,.29,0,.58-.01.86-.02.29.07.36.3.36,5.38,0,10.76,0,16.13,0,.27,0,.54,0,.78,0,.03.08.05.1.05.12,0,1.71-.01,3.42-.02,5.14,0,.04.02.09.03.13h-25.84Z"/><path class="cls-1" d="m174.53,120.54s-.04-4.68-.04-4.68c0-.07,0-.14-.01-.23l-.03-.42-.43-.09h-2.07c-.59,0-1.18,0-1.77,0,0-1.14,0-2.29,0-3.43v-1.11c0-.08,0-.17-.01-.25l-.03-.42-.42-.1h-4.74s-.03.73-.03.82c0,0,.01,5.79.01,7.44,0,.67,0,1.35-.02,2.02v.43h-7.68c0-.12-.01-.25-.01-.37v-35.48c0-.22,0-.44,0-.66h24.99v5.33h4.29s0,2.59,0,2.59c0,4.16,0,8.32,0,12.48-1.55,0-8.58,0-8.58,0l-.04.4c-.02.15-.02.2-.02.26v1.41c0,1.17,0,2.34,0,3.52,0,.09,0,.35.19.54.18.18.4.18.51.18,1.17,0,2.31,0,3.45.02.07,0,.14,0,.21,0v5.25h4.47v.24c0,1.33,0,2.67,0,4,0,.1,0,.2-.02.29h-12.17Zm-8.85-32.1c-.33,0-.71.14-.71.8,0,3.76,0,7.52,0,11.29v4.11c0,.06,0,.13.01.2l.05.39.41.08h9.09s.03-.64.03-.69v-1.1c-.02-1.17-.03-2.34-.04-3.51.4,0,.78,0,1.15,0,0,0,2.44,0,2.44,0,.09,0,.34,0,.52-.19.18-.18.2-.42.2-.58,0-3.32,0-6.64,0-9.96,0-.68-.4-.83-.73-.83-1.85,0-3.7,0-5.54,0-2.28,0-6.85,0-6.85,0Z"/><path class="cls-3" d="m181.79,84.48v5.33h2.3s.74,0,.74,0h1.25s0,1.79,0,1.79c0,4.12,0,8.23,0,12.38-1.32,0-2.64,0-3.96,0h-1.71s-1.71,0-1.71,0h-1.17l-.08.82v.07c-.02.09-.02.16-.02.22v1.41c0,1.17,0,2.34,0,3.51,0,.36.11.65.32.86.31.31.69.31.85.31h0c1.06,0,2.12,0,3.18.01v5.26h4.47v.11c0,1.17,0,2.35,0,3.52h-11.29l-.02-2.03-.02-2.2c0-.08,0-.17-.02-.26v-.09s-.07-.83-.07-.83h-1.87s-1.02,0-1.02,0c-.44,0-.89,0-1.33,0,0-1.01,0-2.01,0-3.02v-1.07c0-.09,0-.18-.01-.27v-.09s-.05-.85-.05-.85h-6.02l-.03.87v.12c0,.1-.01.19-.01.29v2.45c.01,1.66.02,3.32.02,4.99,0,.66,0,1.32-.02,1.98v.02h-6.8v-25.34s0-10.06,0-10.06c0-.07,0-.14,0-.22h24.09m-17.19,21.28h10.33l.04-.86v-.08c0-.08.01-.14.01-.2v-1.09c-.02-1.02-.02-2.05-.04-3.07.24,0,.47,0,.71,0h1.02s1.01,0,1.01,0h.4c.34,0,.62-.11.84-.32.33-.33.33-.76.33-.9,0-3.32,0-6.64,0-9.96,0-.18,0-.61-.34-.95-.15-.15-.42-.33-.85-.33-1.88,0-3.76,0-5.64,0-2.25,0-4.5,0-6.76,0-.51,0-.8.24-.94.44-.22.31-.22.65-.22.8,0,3.92,0,7.84,0,11.75v3.64c0,.08,0,.16.01.25v.06s.09.81.09.81m18.09-22.18h-25.9c0,.37.01.74.01,1.11,0,11.83,0,23.65,0,35.48,0,.27.03.55.04.82h8.54c.01-.97.03-1.93.03-2.9,0-2.48-.01-4.96-.02-7.44,0-.12,0-.23.01-.37h4.3c0,.11.02.21.02.32,0,1.53,0,3.07,0,4.6,0,.32.07.39.31.39,0,0,.01,0,.02,0,.64,0,1.27-.01,1.91-.01.68,0,1.37,0,2.06,0,0,.11.02.2.02.29.01,1.51.02,3.02.03,4.53,0,.2.01.4.02.59h13.01c.02-.25.06-.49.06-.74,0-1.5,0-3,0-4.49,0-.06,0-.12-.02-.19h-4.45v-5.22c-.24-.01-.45-.04-.66-.04-1.14,0-2.28-.01-3.42-.02h0s-.02,0-.03,0c-.14,0-.24,0-.24-.27,0-1.64,0-3.28,0-4.93,0-.06,0-.11.02-.21h.35c1.14,0,2.27,0,3.41,0,1.5,0,3.01,0,4.51,0,0,0,0,0,0,0,.25,0,.35-.05.35-.41-.01-5.01,0-10.02,0-15.03,0-.52,0-.53-.4-.53h-.02c-.57,0-1.15,0-1.72,0-.49,0-.99,0-1.48,0h-.66v-5.33h0Zm-17.27,21.28c0-.09-.02-.15-.02-.22,0-5.13.02-10.26.01-15.39,0-.27.05-.35.27-.35h0c2.25,0,4.5,0,6.75,0,1.88,0,3.76,0,5.64,0h0c.24,0,.28.11.28.38,0,3.32,0,6.64,0,9.96,0,.26-.08.32-.27.32,0,0,0,0,0,0-.13,0-.27,0-.4,0-.68,0-1.35,0-2.03,0-.43,0-.86,0-1.28,0,0,0-.01,0-.02,0-.28,0-.32.13-.31.43.02,1.55.03,3.09.04,4.64,0,.07,0,.14-.01.23h-8.66Z"/><path class="cls-1" d="m195.61,57.8v-.1c-.02-.39-.03-.78-.03-1.17,0-6.47,0-12.94,0-19.42,0-.67-.44-.77-.7-.77h-1.02s-3.5,0-3.5,0v5.32h-3.4v-4.5c0-.23,0-.45-.18-.62-.17-.18-.4-.18-.57-.18h-3.77c-.06,0-.12,0-.19,0l-.39.03-.1.4c0,.13-.01.18-.01.23v20.14c0,.22,0,.43-.02.65h-7.7c0-.06,0-1.6,0-1.6,0-.67,0-1.34,0-2.01V21.29h7.74v4.65c0,.07.01.14.03.22l.07.37.39.09h2.39c.47,0,.94,0,1.42,0,0,.97,0,5.3,0,5.3h5.22v-1.97c0-1.11,0-2.22,0-3.33h2.69s.87,0,.88,0c.1,0,.36,0,.55-.2.18-.18.21-.44.21-.63,0-.98,0-1.97,0-2.95v-1.55h7.72v1.2s0,32.56,0,32.56c0,0,0,2.71,0,2.75h-7.69Z"/><path class="cls-3" d="m202.87,21.74c0,.25,0,.5,0,.75v15.47s0,17.09,0,17.09c0,.47,0,.94,0,1.4v.9h-6.81c0-.27-.02-.55-.02-.82,0-6.47,0-12.94,0-19.42,0-.14,0-.57-.33-.9-.21-.21-.49-.32-.84-.32h0c-.34,0-.67,0-1.01,0h-1.32s-.85,0-.85,0h-.32s-.26,0-.26,0h-.29s-.9,0-.9,0v5.32h-2.5v-.98c0-.96,0-1.92-.01-2.88v-.19c0-.27.01-.64-.3-.95-.31-.31-.68-.31-.89-.31h-.06s-.09,0-.09,0h-1.56s-1.38,0-1.38,0h-.69c-.07,0-.14,0-.21,0h-.07s-.8.05-.8.05l-.05.8v.07c-.01.07-.01.13-.01.19v5.36c0,4.93,0,9.85,0,14.78,0,.07,0,.13,0,.2h-6.82v-1.08c-.01-.7-.02-1.39-.02-2.09v-26.08s0-4.83,0-4.83v-1.54h6.84c0,1.4,0,2.8,0,4.21,0,.09.01.19.03.3v.06s.13.76.13.76h.9s.12,0,.12,0h.16s.93,0,.93,0h1.05c.32,0,.64,0,.97,0,0,.78,0,1.56,0,2.34v1s0,.71,0,.71v.35s0,.9,0,.9h6.12v-2.47c0-.93,0-1.86,0-2.82.11,0,.22,0,.33,0h.95s.94,0,.94,0c.29,0,.59,0,.9,0,.36,0,.65-.11.86-.33.34-.34.34-.78.34-.95,0-1.01,0-2.02,0-3.03v-1.03h6.82m.9-.9h-8.65c.01.13.03.26.03.39,0,1.52-.02,3.04-.02,4.57,0,.3-.07.38-.3.38,0,0,0,0,0,0-.3,0-.6,0-.89,0-.63,0-1.26,0-1.89,0-.3,0-.6,0-.9,0,0,0,0,0,0,0-.25,0-.32.09-.32.41.01,1.5,0,3,0,4.49v.4h-4.33c0-.37,0-.71,0-1.05,0-1.28,0-2.56,0-3.85,0-.31-.07-.4-.32-.4,0,0,0,0-.01,0-.51,0-1.02,0-1.54,0-.66,0-1.32,0-1.97,0-.05,0-.11,0-.16,0-.08,0-.17,0-.25,0-.01-.09-.03-.16-.03-.23,0-1.64,0-3.28,0-4.92,0-.06.01-.12.02-.18h-8.65c0,.81,0,1.63,0,2.44,0,10.3,0,20.61,0,30.91,0,1.15.01,2.3.02,3.45,0,.2-.01.41-.02.61h8.59c.01-.37.04-.73.04-1.1,0-6.71,0-13.42,0-20.14,0-.06,0-.12.01-.2.08,0,.16-.01.23-.01.69,0,1.38,0,2.07,0,.52,0,1.04,0,1.56,0,0,0,.02,0,.03,0,.04,0,.08,0,.12,0,.34,0,.28.02.28.55,0,1.46,0,2.92.01,4.39,0,.12,0,.23.01.37h4.28v-5.32c.2,0,.38,0,.55,0,.11,0,.21,0,.32,0,.72,0,1.45,0,2.17,0,.34,0,.68,0,1.02,0,0,0,0,0,0,0,.19,0,.26.06.26.32,0,6.47,0,12.94,0,19.42,0,.57.03,1.15.04,1.72h8.59c0-.19-.02-.39-.02-.58,0-.87,0-1.75,0-2.62,0-10.85,0-21.71,0-32.56,0-.55,0-1.1,0-1.65h0Z"/><path class="cls-1" d="m34.25,57.8l-.02-5.42h-2.52c-.6,0-1.19,0-1.79,0,0-.74,0-1.4,0-2.06v-3.24h-5.23s0,4.12,0,5.3c-.53,0-1.05-.01-1.57-.02-.66,0-1.32-.01-1.98-.03h-.02c-.13,0-.38,0-.57.2-.22.22-.21.53-.21.68.01,1.38.01,2.75,0,4.13,0,.15-.01.29-.03.44h-7.68V21.29h7.69v21.28h5.25s.04-.7.04-.78v-1.1c.01-1.16.02-2.32.01-3.49.56,0,1.08,0,1.61,0,.61,0,1.23,0,1.84-.02,0,.77,0,1.54,0,2.3,0,.76,0,1.51,0,2.27,0,.68.48.75.69.76.85.01,1.7.03,2.54.04,0,0,1.17.02,1.17.02.09,0,.16,0,.24-.01l.42-.03.1-.43v-20.83h7.7v36.52h-7.7Z"/><path class="cls-3" d="m41.5,21.74v11.34s0,24.28,0,24.28h-6.81l-.02-3.65v-.58s0-.29,0-.29v-.9h-1.95s-1.02,0-1.02,0c-.45,0-.9,0-1.34,0,0-.54,0-1.08,0-1.62v-.75s0-1.39,0-1.39v-.63s0-.9,0-.9h-6.13v1.07s0,.32,0,.32v1.1c0,.93,0,1.85,0,2.8-.37,0-.74,0-1.11-.01-.66,0-1.31,0-2.01-.03-.36,0-.65.11-.87.34-.35.35-.34.81-.34,1,.01,1.37.01,2.74,0,4.11h-6.81V21.74h6.79v21.28h6.13l.04-.86v-.11c.01-.09.02-.18.02-.27v-1.09c.01-1.01.02-2.01.01-3.04.39,0,.77,0,1.16,0,.46,0,.93,0,1.39,0,0,.62,0,1.24,0,1.86,0,.75,0,1.51,0,2.26,0,.73.44,1.2,1.14,1.21.83.01,1.66.03,2.49.04l1.25.02c.08,0,.17,0,.26-.02h.09s.83-.07.83-.07v-21.21h6.8m.9-.9h-8.59v21.28c-.11,0-.19.02-.28.02,0,0-.01,0-.02,0-1.24-.02-2.48-.05-3.71-.06-.18,0-.25-.06-.25-.3.01-1.53,0-3.07.01-4.6,0-.31-.05-.43-.32-.43,0,0-.01,0-.02,0-.65.01-1.3.02-1.95.02-.58,0-1.15,0-1.73-.01,0,0,0,0-.01,0-.24,0-.32.08-.32.4,0,1.55,0,3.09-.01,4.64,0,.11,0,.21-.02.33h-4.38v-21.28h-8.59v37.41h8.53c.02-.3.07-.59.07-.89,0-1.38,0-2.76,0-4.14,0-.31.05-.43.31-.43,0,0,.01,0,.02,0,1.24.03,2.48.02,3.72.05,0,0,0,0,.01,0,.24,0,.28-.13.28-.39,0-1.47,0-2.95,0-4.42,0-.15,0-.31,0-.49h4.33c0,.69,0,1.35,0,2.02,0,.96,0,1.92-.01,2.88,0,.32.08.4.32.4,0,0,0,0,.01,0,.64,0,1.28,0,1.92,0,.68,0,1.37,0,2.07,0,0,.31,0,.59,0,.87,0,1.33.01,2.66.02,3.99,0,.19,0,.37.01.56h8.59c0-.23,0-.47,0-.7,0-12.24,0-24.47,0-36.71h0Z"/><path class="cls-1" d="m114.15,120.54v-.39c-.01-.55-.02-1.11-.02-1.66,0-6.2-.02-12.4-.01-18.59,0-.67-.4-.81-.73-.81-.45,0-.89,0-1.33,0h-2.46c-.07,0-.14,0-.23.01l-.51.05v5.26s-2.76,0-3.35,0v-1.38c-.01-1.05-.01-2.1,0-3.14,0-.15,0-.43-.2-.63-.19-.19-.44-.19-.52-.19-.42,0-.81,0-1.21,0h-3.31s0,21.26,0,21.26c0,.06,0,.13,0,.19h-7.68v-36.52h7.7v5.34h1.86c.82,0,1.64,0,2.46-.01,0,1.14,0,5.29,0,5.29h5.2l.02-.42c.01-.15.02-.21.01-.27v-1.06c0-1.18,0-2.36-.02-3.54.55,0,1.07,0,1.59,0h1.99c.07,0,.37-.03.37-.03l.42-.03v-5.28h7.7s0,24.61,0,33.39c0,.8-.02,1.6-.03,2.4v.73h-7.67Z"/><path class="cls-3" d="m121.4,84.48v6.79c0,8.71,0,17.43,0,26.14,0,.81-.02,1.62-.03,2.42v.25h-6.77c0-.53-.02-1.07-.02-1.6,0-6.2-.02-12.4-.01-18.59,0-.15,0-.54-.27-.86-.22-.26-.52-.39-.93-.39h0c-.44,0-.88,0-1.32,0h-1.32s-1.13,0-1.13,0c-.08,0-.17,0-.28.02h-.1s-.82.09-.82.09v5.23h-.13s-1,0-1,0c-.45,0-.89,0-1.33,0v-1c0-1.02-.01-2.05,0-3.07,0-.18,0-.61-.33-.95-.21-.21-.5-.32-.86-.32h0c-.39,0-.79,0-1.18,0h-1.08s-.86,0-.86,0h-.33s-.28,0-.28,0h-.31s-.9,0-.9,0v3.91c0,5.85,0,11.7,0,17.55h-6.79v-18.15s0-17.46,0-17.46h6.8v5.34h1.06s.13,0,.13,0h.15s.91,0,.91,0c.69,0,1.37,0,2.06,0,0,.95,0,1.9,0,2.85v1.17s0,.25,0,.25v.12s0,.9,0,.9h6.08l.05-.84v-.08c.01-.08.02-.15.02-.22v-1.15c0-.99,0-1.98-.01-3,.37,0,.73,0,1.1,0h1.2s.82,0,.82,0c.08,0,.16,0,.27-.01h.13s.84-.06.84-.06v-5.25h6.8m.9-.9h-8.59v5.31c-.16,0-.25.02-.34.02-.67,0-1.35,0-2.02,0-.55,0-1.11,0-1.66,0,0,0,0,0-.01,0-.25,0-.34.07-.33.42.02,1.55.02,3.09.02,4.64,0,.07,0,.14-.01.24h-4.33c0-.13,0-.25,0-.37,0-1.52,0-3.04,0-4.57,0-.29-.08-.36-.29-.36,0,0,0,0-.01,0-1.19.01-2.38,0-3.57.01-.05,0-.1,0-.15,0-.09,0-.18,0-.3,0v-5.34h-8.59v36.72c0,.23,0,.46,0,.69h8.54c.02-.21.06-.43.06-.64,0-6.77,0-13.55,0-20.32v-.5c.21,0,.4,0,.59,0,.11,0,.22,0,.33,0,.65,0,1.29,0,1.94,0,.4,0,.8,0,1.2,0,0,0,0,0,.01,0,.23,0,.27.1.27.37,0,1.55,0,3.09,0,4.64,0,.2.01.34.23.34,0,0,0,0,0,0,.66,0,1.33,0,2,0s1.34,0,2.03,0v-5.31c.13-.01.21-.03.29-.03h0c.82,0,1.63,0,2.45,0,.44,0,.88,0,1.33,0,0,0,0,0,.01,0,.22,0,.28.06.28.36,0,6.2,0,12.4.01,18.59,0,.83.02,1.67.03,2.5h8.54c.02-1.19.06-2.38.06-3.58,0-11.28,0-22.56,0-33.84h0Z"/><path class="cls-1" d="m79.63,120.54c-.01-.16-.02-.32-.02-.48,0-2.63,0-9.46,0-9.46,0-.07-.02-.37-.02-.37l-.02-.43h-6.94c-2.03,0-6.09,0-6.09,0-.18,0-.4.02-.57.2-.19.19-.21.44-.21.64,0,2.97,0,5.94,0,8.92,0,.32-.01.65-.03.97h0s-7.67,0-7.67,0c-.01-.29-.02-.58-.02-.87v-25.01h4.35v-5.3s3.62,0,3.62,0c.13,0,.34,0,.5-.17.18-.18.18-.43.18-.51l-.02-4.66h11.99v5.29l.55.03c.09,0,.17.01.25.01h1.97c.53,0,1.06,0,1.59,0-.01,1.2-.01,2.4-.01,3.6v.96c0,.07,0,.14.01.23l.04.54h4.26v2.45c.01,1.66.02,3.32.02,4.99,0,6.07,0,12.13-.02,18.2,0,.07,0,.15-.01.22h-7.66Zm-13.87-15.25h13.83v-11.52h-2.66c-.54,0-1.08,0-1.63,0,0-.7,0-1.36,0-2.01,0-.84,0-1.67,0-2.51,0-.15,0-.43-.2-.63-.19-.19-.44-.19-.52-.19-.41,0-.81,0-1.2,0h-3.31s0,5.34,0,5.34h-4.3v11.51Z"/><path class="cls-3" d="m78.2,84.48v5.26l.84.05h.12c.1.02.19.02.28.02h.81s1.16,0,1.16,0c.38,0,.76,0,1.14,0,0,1.04,0,2.07,0,3.11v1c0,.09,0,.17.02.27v.11s.07.83.07.83h4.23v1.86c.01,1.71.02,3.41.02,5.12,0,5.99,0,11.98-.01,17.97h-6.8s0-.02,0-.03c0-2.19,0-4.39,0-6.58v-2.88c0-.09,0-.17-.01-.27v-.12s-.05-.85-.05-.85h-1.14s-.13,0-.13,0h-2.23s-4.02,0-4.02,0c-1.98,0-3.96,0-5.94,0-.14,0-.56,0-.89.33-.34.34-.34.79-.34.96,0,2.97,0,5.94,0,8.91,0,.18,0,.35-.01.53h-6.8c0-.14,0-.28,0-.42,0-6.88,0-13.76,0-20.64v-3.92h4.34v-5.3h.26s1.09,0,1.09,0h1.85c.32,0,.59-.1.79-.3.21-.21.31-.49.31-.83,0-1.29-.01-2.57-.01-3.86v-.35s11.09,0,11.09,0m-8.59,8.86h-4.3v12.41h14.73v-12.42h-2.15s-.92,0-.92,0c-.4,0-.81,0-1.21,0,0-.54,0-1.07,0-1.61,0-.82,0-1.64,0-2.46,0-.18,0-.62-.33-.95-.21-.21-.5-.32-.86-.32h0c-.4,0-.8,0-1.19,0-.49,0-.98,0-1.47,0h-.95s-.15,0-.15,0h-.13s-.15,0-.15,0h-.9v5.35m9.49-9.75h-12.89c0,1.7,0,3.41.02,5.11,0,.22-.09.23-.21.23-.01,0-.03,0-.04,0-.6,0-1.21,0-1.81,0-.65,0-1.29,0-1.94,0h-.31v5.3h-4.34c0,.2,0,.36,0,.53,0,8.31,0,16.62,0,24.93,0,.44.03.88.04,1.32h8.54c.01-.48.04-.95.04-1.43,0-2.97.01-5.95,0-8.92,0-.33.08-.39.33-.39h0c1.98,0,3.96,0,5.94,0,2.08,0,4.17,0,6.25,0,.04,0,.09,0,.13,0,.09,0,.18,0,.29,0,0,.14.02.25.02.35,0,3.15,0,6.31,0,9.46,0,.31.04.62.06.93h8.48c.02-.22.07-.45.07-.67,0-6.07.01-12.13.02-18.2,0-2.49-.01-4.99-.02-7.48,0-.12,0-.24,0-.4h-4.29c0-.14-.02-.23-.02-.32,0-1.53,0-3.07.01-4.6,0-.31-.07-.41-.31-.41,0,0,0,0-.01,0-.57,0-1.14,0-1.72,0-.66,0-1.31,0-1.97,0-.1,0-.21-.01-.35-.02v-5.31h0Zm-12.89,21.27v-10.61h4.3v-5.35c.1,0,.2,0,.28,0,.05,0,.1,0,.14,0,.81,0,1.62,0,2.43,0,.4,0,.8,0,1.2,0,0,0,0,0,0,0,.24,0,.27.1.27.37,0,1.55,0,3.09,0,4.64,0,.28.09.33.28.33,0,0,0,0,0,0,.61,0,1.21,0,1.82,0s1.23,0,1.84,0h.34v10.62h-12.93Z"/><path class="cls-1" d="m143.85,57.8c0-.05-.02-5.42-.02-5.42h-4.34v-25.77h1.62c.66,0,1.33,0,1.99,0h0c.11,0,.35,0,.53-.19.18-.18.2-.41.2-.6,0-1.3,0-2.6,0-3.91v-.64h20.65v.82c0,1.27,0,2.53,0,3.8,0,.09,0,.35.19.54.18.18.41.18.5.18.97,0,3.65,0,3.65,0,0,0-.01,8.48-.01,10.81,0,4.98,0,9.97.01,14.95h-3.61c-.08,0-.33,0-.52.2-.18.18-.2.41-.2.62,0,1.46,0,2.92,0,4.38,0,.08,0,.15-.01.23h-20.62Zm3.38-5.29c0,.67.39.81.71.81,3.04,0,6.08,0,9.13,0h3.33c.07,0,.14,0,.21-.02l.39-.05.07-.4v-27.13h-13.84s0,19.8,0,26.8Z"/><path class="cls-3" d="m164.03,21.74v.33c0,1.28,0,2.56,0,3.83,0,.35.11.64.32.86.31.31.69.31.83.31h0c.96,0,1.93,0,2.89,0h.29s0,3.43,0,3.43c0,2.31,0,4.62,0,6.93,0,4.83,0,9.66.01,14.5-.44,0-.88,0-1.31,0-.47,0-.94,0-1.41,0h-.44c-.34,0-.62.11-.84.32-.33.34-.33.77-.33.94,0,1.39,0,2.77,0,4.16h-19.73v-2.67s-.02-1.26-.02-1.26v-.38s0-.21,0-.21v-.9h-4.34v-24.87h.12s1.03,0,1.03,0c.67,0,1.34,0,2.03,0,.35,0,.63-.11.84-.32.33-.33.33-.77.33-.92,0-1.24,0-2.49,0-3.73v-.36h19.75m-16.09,32.04h0c3.15,0,6.3,0,9.44,0h3.01c.09,0,.18,0,.31-.03l.81-.08v-28.39h-14.74v1.51s0,1.25,0,1.25v3.38c0,7.04,0,14.08,0,21.12,0,.23.02.5.19.76.12.18.4.49.97.49m16.99-32.93h-21.54c0,1.67,0,3.33,0,5,0,.28-.07.34-.27.34,0,0,0,0-.01,0-.67,0-1.34,0-2.02,0-.56,0-1.11,0-1.67,0-.12,0-.24.01-.37.02v26.65h4.34c0,.23,0,.41,0,.6,0,1.4.01,2.81.02,4.21,0,.2-.01.41-.02.61h21.48c.02-.22.06-.45.06-.67,0-1.46.01-2.92,0-4.39,0-.27.05-.35.27-.35h0c.14,0,.29,0,.43,0,.94,0,1.89,0,2.83,0,.18,0,.36,0,.53,0h0c.19,0,.25-.06.25-.3,0-5.03-.01-10.07-.01-15.1,0-3.63,0-7.26.01-10.9,0-.11-.01-.21-.02-.37-.07,0-.13,0-.18,0-.04,0-.07,0-.1,0-1.26,0-2.52,0-3.77,0,0,0,0,0,0,0-.15,0-.24-.03-.24-.27,0-1.69,0-3.38,0-5.07h0Zm-16.99,32.04c-.23,0-.26-.1-.26-.36,0-8.16,0-16.33,0-24.49,0-.61,0-1.22,0-1.86h12.94v26.68c-.07,0-.15.02-.22.02-4.15,0-8.3,0-12.45,0h0Z"/><path class="cls-1" d="m32.17,120.54v-5.43h-1.93c-.8.01-1.61.02-2.41.03.01-1.17.01-2.34,0-3.51v-1.09c0-.06,0-.13-.01-.21l-.04-.53h-2.79c-.49,0-.97,0-1.46,0,0-3.49,0-15.13,0-15.13h4.29l.02-.58c0-.1,0-.2,0-.29v-1c-.01-1.16-.02-2.31-.03-3.47.72,0,2.63,0,2.63,0h1.71v-5.33h20.64s0,4.42,0,4.42h-16.48c-.08,0-.16,0-.25.01l-.4.02-.12.4c-.01.16-.01.22-.01.28v1.09c0,1.17,0,2.35,0,3.52-.54,0-2.55,0-2.55,0h-1.72v16.96h2.52c.59,0,1.17,0,1.76,0,0,.87,0,1.74,0,2.62v1.93c0,.14,0,.41.19.6.12.12.29.19.5.19,2.06,0,4.11-.01,6.16-.01h2.68v-11.64h-4.3v-4.41s7.7,0,7.7,0c1.44,0,2.88,0,4.32,0,0,.35,0,.65,0,.95v19.58s-20.64,0-20.64,0Z"/><path class="cls-3" d="m52.36,84.48v.42s0,3.1,0,3.1h-3.85s-12.18,0-12.18,0c-.09,0-.19,0-.28.01h-.09s-.8.06-.8.06l-.05.8v.09c-.01.08-.02.14-.02.21v1.09c0,1.02,0,2.04,0,3.08-.39,0-.77,0-1.16,0h-.95s-.95,0-.95,0h-1.21v17.86h1.94s1.04,0,1.04,0c.43,0,.86,0,1.29,0,0,.72,0,1.44,0,2.16,0,.64,0,1.29,0,1.93,0,.18,0,.59.33.92.15.15.41.32.83.32,2.06,0,4.12-.01,6.18-.01h1.62s.2,0,.2,0h.17s.2,0,.2,0h.9v-12.53h-4.3v-3.51h1.15s3.48,0,3.48,0h1.22s1.44,0,1.44,0c1.27,0,2.55,0,3.82,0,0,.17,0,.34,0,.51v.38s0,18.75,0,18.75h-19.74v-5.43h-1.1s-.18,0-.18,0h-.22s-.87,0-.87,0c-.65,0-1.31,0-1.97.02,0-1.01,0-2.01,0-3.02v-1.11c0-.08,0-.15-.02-.25v-.1s-.07-.83-.07-.83h-2.18s-1.01,0-1.01,0c-.34,0-.69,0-1.03,0,0-3.29,0-6.58.01-9.87v-2.25s0-2.04,0-2.04v-.07s3.41,0,3.41,0h.86l.03-.86v-.14c.01-.11.02-.21.02-.31v-.93c-.01-1.02-.02-2.04-.03-3.07.53,0,1.06,0,1.59,0h.56s.56,0,.56,0h.39s.11,0,.11,0h.1s.13,0,.13,0h.9v-5.33h19.75m.9-.9h-21.54v5.33c-.09,0-.16,0-.23,0-.04,0-.07,0-.11,0-.13,0-.26,0-.39,0-.37,0-.75,0-1.12,0-.73,0-1.45,0-2.18,0,0,0,0,0-.01,0-.23,0-.31.08-.31.38.02,1.51.03,3.02.03,4.53,0,.13,0,.25-.02.42h-4.3c0,1.03,0,2.02,0,3.01,0,4.22,0,8.44-.01,12.66,0,.3.09.36.29.36,0,0,0,0,0,0,.54,0,1.08,0,1.63,0,.64,0,1.28,0,1.92,0,.05,0,.09,0,.14,0,.1,0,.19,0,.3,0,0,.13.02.21.02.29,0,1.53.01,3.07,0,4.6,0,.34.07.44.33.44,0,0,.02,0,.03,0,1.13-.03,2.26-.03,3.4-.04.07,0,.14,0,.21,0,.12,0,.25,0,.38,0v4.81c0,.21,0,.41,0,.62h21.54c0-.22,0-.44,0-.66,0-6.33,0-12.66,0-18.99,0-.47-.01-.94,0-1.4.01-.31-.08-.38-.31-.38,0,0,0,0,0,0-1.47,0-2.95,0-4.42,0-.89,0-1.78,0-2.67,0-1.69,0-3.39,0-5.08,0-.05,0-.1,0-.14,0-.1,0-.2,0-.31,0v5.31h4.3v10.74c-.13,0-.25,0-.37,0-.07,0-.13,0-.2,0-2.6,0-5.21,0-7.81.01h0c-.22,0-.25-.11-.25-.34,0-1.52,0-3.05,0-4.57,0-.32-.06-.43-.33-.43,0,0,0,0-.01,0-.62,0-1.24.01-1.86.01-.69,0-1.38,0-2.08,0v-16.06h.31c.63,0,1.27,0,1.9,0,.58,0,1.17,0,1.75,0,0,0,0,0,0,0,.24,0,.3-.09.3-.39-.01-1.56,0-3.12,0-4.68,0-.07,0-.14.01-.25.11,0,.21-.02.31-.02,5.52,0,11.03,0,16.55,0h.01c.37,0,.37,0,.37-.47,0-1.62,0-3.24,0-4.86h0Z"/><path class="cls-1" d="m47.19,57.8v-.1c-.02-.39-.03-.78-.03-1.17,0-4.66,0-9.32,0-13.98l.02-21.26h24.96v.81c0,1.2,0,2.41,0,3.61-.17,0-8.6,0-8.6,0-2.64,0-5.28,0-7.92,0-.15,0-.37.02-.55.19-.18.18-.2.41-.2.64.01,2.83.01,5.67.01,8.5v1.14c0,.41,0,.65.17.86.2.25.48.25.81.25h9.56s6.72,0,6.72,0c0,.95,0,3.69,0,3.69v.72h-17.22l-.04.52c0,.1-.02.18-.02.27v2.63c0,2.46.01,4.91,0,7.37,0,.57.26.86.77.86,4.44,0,8.87,0,13.3,0h3.2s0,4.49,0,4.49h-24.95Z"/><path class="cls-3" d="m71.69,21.74v.37c0,1.04,0,2.09,0,3.15-.02,0-.04,0-.06,0h-.53s-.51,0-.51,0h-2.33s-4.72,0-4.72,0c-2.64,0-5.28,0-7.92,0-.36,0-.65.11-.86.33-.33.34-.33.77-.33.96.01,2.8.01,5.61.01,8.41v1.23c0,.95.24,1.54,1.44,1.54h3.47s5.98,0,5.98,0c2.13,0,4.25,0,6.38,0,0,.75,0,1.49,0,2.24v1s0,.27,0,.27h-17.19l-.06.83v.11c-.02.11-.03.2-.03.3v2.73c0,2.42.01,4.85,0,7.27,0,.19,0,.63.34.98.22.22.51.33.88.33,4.51,0,9.03,0,13.54,0h2.51s0,3.59,0,3.59h-24.07c0-.27-.02-.55-.02-.82,0-4.66,0-9.32,0-13.98,0-4.04,0-8.08.01-12.12v-8.69h24.08m.9-.9h-25.9c.01.13.03.26.03.39,0,7.11-.02,14.21-.02,21.32,0,4.66,0,9.32,0,13.99,0,.57.03,1.15.04,1.72h25.84c0-.22,0-.45,0-.67,0-1.43,0-2.85,0-4.28v-.44c-.18,0-.35,0-.51,0-.08,0-.16,0-.24,0-5.4,0-10.8,0-16.2,0h0c-.26,0-.32-.09-.32-.41,0-3.33,0-6.67,0-10,0-.1.01-.21.02-.34h17.25v-1.17c0-1.26,0-2.52,0-3.78,0-.28-.06-.36-.29-.36h0c-2.33,0-4.66,0-6.98,0-3.15,0-6.3,0-9.44,0-.54,0-.54,0-.54-.65,0-3.21,0-6.43-.01-9.64,0-.3.05-.38.3-.38h0c2.64,0,5.28,0,7.92,0,2.35,0,4.7,0,7.06,0,.35,0,.69,0,1.04,0,.21,0,.43,0,.64,0,0,0,.01,0,.02,0,.22,0,.3-.09.3-.39-.01-1.64,0-3.29,0-4.93h0Z"/><path class="cls-1" d="m127.07,120.54c0-.12-.01-.25-.01-.37v-35.48c0-.22,0-.44,0-.66h24.99v.92c0,1.09,0,2.18,0,3.27v.23s-4.56,0-4.56,0c-3.98,0-7.97,0-11.95,0h0c-.12,0-.37,0-.57.2-.18.18-.21.43-.21.65.02,3.19.01,6.38.01,9.57,0,.46,0,.7.17.91.2.25.5.25.83.25h3.37c4.3,0,8.6,0,12.9-.01,0,1.05,0,2.1,0,3.15v1.27s-16.42,0-16.42,0c-.26,0-.49,0-.68.19-.19.19-.19.42-.19.77,0,3.31.01,6.59,0,9.86,0,.54.26.82.77.82,4.78,0,9.57,0,14.35,0h2.11s0,4.49,0,4.49h-24.91Z"/><path class="cls-3" d="m151.59,84.48v.46c0,1.02,0,2.04,0,3.06h-4.18c-3.96,0-7.92,0-11.88,0-.14,0-.56,0-.88.33-.34.34-.34.79-.34.96.02,3.19.01,6.38.01,9.6,0,.45,0,.81.25,1.14.34.44.82.44,1.21.44h3.31c4.17,0,8.33,0,12.5-.01,0,.91,0,1.83,0,2.74v.79s-10.5,0-10.5,0h-5.48c-.29,0-.68,0-1,.32-.32.32-.32.71-.32,1.13,0,3.27.01,6.54,0,9.82,0,.15,0,.6.34.94.32.32.72.33.88.33h0c4.61,0,9.21,0,13.82,0h2.19s0,3.59,0,3.59h-24.03v-25.5s0-9.9,0-9.9c0-.07,0-.14,0-.22h24.09m.9-.9h-25.9c0,.37.01.74.01,1.11,0,11.83,0,23.65,0,35.48,0,.27.03.55.04.82h25.78v-5.39c-.12,0-.26,0-.41,0-.07,0-.14,0-.22,0-5.43,0-10.86,0-16.29,0h0c-.22,0-.32-.04-.32-.37,0-3.27,0-6.55,0-9.82,0-.55-.01-.55.42-.55,5.48,0,10.95,0,16.43,0h.43c0-.13.01-.25.01-.36,0-1.51,0-3.02,0-4.53,0-.32-.06-.43-.34-.43h0c-5.46.01-10.92.01-16.37.01h-.03c-.54,0-.53-.01-.53-.71,0-3.19,0-6.38-.01-9.57,0-.34.08-.39.32-.39h0c3.96,0,7.92,0,11.88,0,1.51,0,3.02,0,4.53,0h0c.13,0,.24,0,.31,0,.3,0,.23-.06.24-.68,0-1.55,0-3.09,0-4.64h0Z"/><path class="cls-1" d="m208.56,57.8c0-.24-.02-.49-.02-.73V22.49c0-.39,0-.78-.01-1.16v-.04h24.97s0,.48,0,.48c0,1.31,0,2.63.02,3.94-4.69,0-9.36,0-14.03,0h-3.23s0,10.35,0,10.35c0,.48,0,.74.18.96.21.26.51.26.89.26h3.91c4.09,0,8.18,0,12.27,0,0,1.13,0,4.41,0,4.41h-17.22l-.03.6c0,.11-.01.2-.01.3,0,0,0,7.75,0,9.96,0,.68.44.78.7.78l16.57-.02c0,1.19,0,2.29-.01,3.39,0,0,0,1.05,0,1.11h-24.94Z"/><path class="cls-3" d="m233.05,21.74v.07c0,1.15,0,2.29.01,3.46-4.39,0-8.78,0-13.18,0h-2.53s-.2,0-.2,0h-.2s-.24,0-.24,0h-.9v1.06s0,.28,0,.28v2.37s0,7.1,0,7.1c0,.51,0,.87.26,1.21.35.45.86.45,1.27.45h3.45c4.09,0,8.18,0,12.28,0,0,.92,0,1.83,0,2.75v.77h-17.2l-.04.86v.15c-.01.12-.02.23-.02.34v2.91c0,2.35,0,4.7,0,7.05,0,.22.02.5.2.76.12.18.4.47.95.47,2.65,0,5.3,0,7.95-.01,2.72,0,5.44,0,8.17-.01,0,.99-.01,1.99-.01,2.98v.62h-24.06c0-.09,0-.19,0-.28v-19.79s0-14.79,0-14.79c0-.25,0-.5,0-.75h24.06m.92-.9h-25.9c0,.55.02,1.1.02,1.65,0,11.53,0,23.05,0,34.58,0,.39.02.79.04,1.18h25.84c0-.21-.02-.41-.02-.62,0-1.46,0-2.93.02-4.39,0-.33-.08-.39-.33-.39h0c-5.56.01-11.13.01-16.69.02h0c-.22,0-.25-.1-.25-.33,0-3.32,0-6.64,0-9.96,0-.14.01-.28.02-.45h17.22c0-.12.02-.22.02-.31,0-1.53,0-3.07.01-4.6,0-.33-.09-.4-.33-.4h0c-5.43,0-10.86,0-16.29,0-.01,0-.02,0-.03,0-.6,0-.6-.01-.6-.77,0-3.15,0-6.31,0-9.46,0-.14,0-.28,0-.44.16,0,.31,0,.44,0,.07,0,.14,0,.2,0,5.44,0,10.88,0,16.31.01h0c.23,0,.3-.09.3-.37-.01-1.46-.01-2.93-.02-4.39,0-.19.01-.38.02-.57h0Z"/><path class="cls-1" d="m196.08,120.54l-.03-4.64c0-.08-.04-.78-.04-.78h-4.26v-4.46h3.74c1.35,0,2.69,0,4.04,0-.02,1.14-.04,2.27-.05,3.41v.31c0,.27,0,.54,0,.83v.79s.41.04.41.04c.16.02.23.03.3.03h7.76s4.6,0,4.6,0c.09,0,.37,0,.57-.2.19-.19.21-.43.21-.67,0-2.65,0-5.29,0-7.94v-2.81s-13.35,0-17.25,0c0-.81,0-1.54,0-2.28,0-.75,0-1.51,0-2.26,0-.19-.02-.44-.2-.62-.17-.17-.38-.19-.53-.19-.56,0-1.11,0-1.65,0-.65,0-1.31,0-1.96.01,0-2.35,0-4.7,0-7.06v-2.69h2.31c.43,0,1.28,0,1.28,0,.29,0,.49-.09.61-.28.11-.16.12-.36.12-.54,0-1.29,0-2.59.01-3.88v-.63h16.35v5.33h2.73c.52,0,1.04,0,1.56,0,0,1.48-.02,2.95,0,4.43-1.49,0-7.73,0-7.73,0v-1c0-1.16,0-2.32,0-3.48,0-.22-.02-.47-.21-.65-.2-.2-.47-.2-.56-.2h-8.07c-.07,0-.14,0-.22.02l-.38.06-.09.4v11.09h5.88c3.8,0,7.59,0,11.39,0,0,1.29,0,2.57,0,3.86v.73c0,.07,0,.15.02.23l.03.41.42.09h3.84v9.78h-.51c-.94.01-1.87.02-2.81.02h-.29c-.08,0-.34,0-.53.2-.2.21-.18.5-.17.61.01.2,0,.41,0,.62l-.04,4h-20.6Z"/><path class="cls-3" d="m211.98,84.48v5.33h2.24s.95,0,.95,0c.37,0,.74,0,1.1,0,0,1.12-.01,2.3,0,3.52-1.29,0-2.57,0-3.86,0h-1.76s-1.2,0-1.2,0v-.54c0-1.16,0-2.32,0-3.48,0-.17,0-.63-.34-.97-.22-.22-.52-.33-.89-.33-1.02,0-2.04,0-3.05,0h-2.85s-2.17,0-2.17,0c-.09,0-.18,0-.28.02h-.06s-.8.1-.8.1v12.34h4.01s2.58,0,2.58,0c3.56,0,7.11,0,10.67,0,0,1.06,0,2.11,0,3.17v.96c0,.09,0,.18.02.27v.09s.07.83.07.83h4.22v8.88h-.1c-.93,0-1.85.02-2.78.02h-.28c-.44,0-.71.19-.85.34-.33.35-.31.79-.3.94.01.19,0,.39,0,.59v.25s-.04,3.02-.04,3.02v.28h-19.71v-1.55s-.02-2.64-.02-2.64c0-.09,0-.17-.01-.27v-.11s-.05-.85-.05-.85h-4.23v-3.57h1.32s1.95,0,1.95,0c1.2,0,2.4,0,3.6,0-.02.94-.03,1.88-.04,2.82v.45c0,.27,0,.54,0,.83v.39s0,.82,0,.82l.82.08h.07c.1.02.19.03.28.03h2.97s4.9,0,4.9,0c1.5,0,3,0,4.5,0,.37,0,.66-.11.89-.33.34-.35.34-.8.34-.99,0-2.6,0-5.19,0-7.79v-2.14s0-.38,0-.38v-.9h-3.9s-2.5,0-2.5,0c-3.61,0-7.23,0-10.85,0,0-.6,0-1.21,0-1.81,0-.76,0-1.52,0-2.28,0-.16,0-.6-.33-.94-.21-.21-.5-.32-.87-.32h0c-.54,0-1.08,0-1.63,0-.5,0-1.01,0-1.51,0,0-2.24,0-4.49,0-6.73v-2.11h.57c.43,0,.86,0,1.29,0s.85,0,1.3,0c.34,0,.63-.11.84-.32.33-.33.33-.76.33-.95,0-1.23,0-2.47.01-3.7v-.36h15.46m.9-.9h-17.25c0,1.65-.02,3.31-.02,4.96,0,.27-.04.37-.27.37,0,0,0,0-.01,0-.43,0-.86,0-1.29,0-.74,0-1.48,0-2.23,0-.06,0-.12,0-.18,0-.11,0-.21,0-.34,0,0,.16-.02.28-.02.41,0,3.27,0,6.55,0,9.82,0,.32.06.42.32.42,0,0,.01,0,.02,0,1.24-.02,2.48,0,3.71-.02,0,0,0,0,.01,0,.21,0,.28.06.28.36,0,1.53.01,3.07,0,4.6,0,.34.1.39.34.39h0c3.8,0,7.61,0,11.41,0,1.67,0,3.34,0,5,0h.5v.38c0,3.31,0,6.62,0,9.93,0,.32-.06.42-.33.42h0c-1.5,0-3,0-4.5,0-2.62,0-5.24,0-7.86,0h0c-.08,0-.17-.01-.26-.02,0-.42,0-.81,0-1.2.01-1.25.03-2.49.05-3.74,0-.3-.04-.44-.32-.44,0,0,0,0,0,0-1.39,0-2.79.01-4.18.01-1.25,0-2.5,0-3.75,0-.13,0-.27,0-.42,0v5.36h4.28c0,.13.02.23.02.34,0,1.47.01,2.95.02,4.42,0,.22,0,.44,0,.66h21.48c.01-1.4.03-2.79.04-4.19,0-.3.02-.6,0-.9-.01-.25.04-.33.25-.33h0c.09,0,.19,0,.28,0,1.15,0,2.31-.01,3.46-.02.11,0,.21-.02.32-.02v-10.65h-4.29c0-.11-.02-.2-.02-.29,0-1.53,0-3.07,0-4.6,0-.32-.07-.43-.34-.43h0c-3.74,0-7.49,0-11.23,0-1.72,0-3.43,0-5.15,0h-.54v-10.64c.09-.01.17-.03.24-.03h0c1.67,0,3.34,0,5.01,0,1.02,0,2.04,0,3.06,0h0c.25,0,.32.09.32.4-.01,1.51,0,3.02,0,4.53,0,.12,0,.24.02.4h.32c1.17,0,2.35,0,3.52,0,1.47,0,2.94,0,4.4,0,0,0,0,0,0,0,.27,0,.36-.08.35-.44-.02-1.49-.01-2.97,0-4.46,0-.31-.05-.43-.32-.43,0,0-.01,0-.02,0-.56.01-1.11.01-1.67.01-.63,0-1.26,0-1.89,0h-.4v-5.33h0Z"/><path class="cls-1" d="m111.11,57.8c0-.06-.02-5.42-.02-5.42h-4.33v-5.27l-.55-.03c-.1,0-.19-.01-.29-.01h-1.62c-.62,0-1.23,0-1.85,0,0-4.45.02-15.13.02-15.13h4.26v-5.34h1.63c.66,0,1.33,0,1.99,0h0c.11,0,.35,0,.53-.19.18-.18.2-.41.2-.6,0-1.25,0-2.5,0-3.75v-.8h16.35v5.34h1.79c.84,0,1.67,0,2.51-.02,0,1.53,0,2.98,0,4.42-1.95,0-7.71,0-7.71,0v-2.08c0-.82,0-1.64,0-2.46,0-.12,0-.4-.2-.6-.12-.13-.3-.19-.51-.19h-8.25s-.14,0-.14,0l-.37.06-.08.39v1.73c0,1.05,0,2.1,0,3.14-.56,0-2.56,0-2.56,0h-1.68s-.04.4-.04.4c-.03.19-.04.27-.03.35l.03,14.69c0,.24,0,.47,0,.71,0,.17,0,.41.18.6.19.2.44.2.53.2h2.92s.68,0,.68,0c0,.92,0,1.85,0,2.77v1.84c0,.66.51.72.67.72,2.02,0,4.03-.01,6.04-.01h2.08c.23,0,.41-.07.54-.2.19-.19.21-.44.21-.65,0-.66,0-1.32,0-1.98,0-.83,0-1.66,0-2.49,1.92,0,7.72,0,7.72,0,0,1.5,0,2.95,0,4.4-.98-.02-1.93-.02-2.88-.03h-.72c-.07,0-.14,0-.22.01l-.4.04-.09.42v4.97h-16.33Z"/><path class="cls-3" d="m126.99,21.74v5.34h1.04s.13,0,.13,0h.14s.93,0,.93,0c.69,0,1.37,0,2.06,0,0,1.17,0,2.34,0,3.52-1.73,0-3.46,0-5.18,0h-1.63s0-.5,0-.5v-.97c0-.87,0-1.75,0-2.62,0-.16,0-.59-.33-.92-.15-.15-.41-.32-.83-.32h-.79c-1.75,0-3.5,0-5.26,0h-2.17c-.07,0-.15,0-.25.02h-.06s-.77.12-.77.12v1.02s0,.48,0,.48v1.11c0,.86,0,1.72,0,2.59-.38,0-.77,0-1.15,0h-.95s-.95,0-.95,0h-1.14l-.09.8v.08c-.03.11-.04.21-.04.31l.02,12.91v1.44s0,.33,0,.33c0,.23,0,.47,0,.7,0,.14-.03.58.3.93.21.22.5.34.86.34h.37c.42,0,.84,0,1.26,0,.42,0,.85,0,1.27,0,.08,0,.16,0,.23,0,0,.78,0,1.56,0,2.34,0,.61,0,1.21,0,1.82,0,.35.11.64.32.85.14.14.4.31.8.31,2,0,4.01-.01,6.01-.01h2.12c.44,0,.71-.18.86-.33.34-.35.34-.8.34-.97,0-.66,0-1.31,0-1.97,0-.68,0-1.36,0-2.05,1.75,0,3.5,0,5.24,0h1.57c0,1.16,0,2.32,0,3.49-.8-.01-1.61-.02-2.41-.02h-.74c-.08,0-.17,0-.27.02h-.08s-.81.09-.81.09v4.16s0,1.17,0,1.17h-15.43v-2.65s-.02-1.28-.02-1.28v-.38s0-.21,0-.21v-.9h-4.33v-5.25l-.85-.05h-.13c-.11-.02-.21-.02-.31-.02h-.72s-.9,0-.9,0c-.47,0-.93,0-1.4,0,0-3.74.01-7.49.02-11.23v-2.99h4.26v-5.34h.13s1.03,0,1.03,0c.67,0,1.34,0,2.03,0,.35,0,.63-.11.84-.32.33-.33.33-.77.33-.92,0-1.24,0-2.49,0-3.73v-.36h15.45m.9-.9h-17.25c0,1.67,0,3.33,0,5,0,.28-.07.33-.27.33,0,0,0,0-.01,0-.67,0-1.34,0-2.02,0-.56,0-1.11,0-1.67,0-.12,0-.24.01-.39.02v5.31h-4.24c-.01.07-.02.09-.02.11,0,5.19-.02,10.38-.03,15.58,0,.27.07.34.28.34,0,0,0,0,.01,0,.67,0,1.34,0,2.01,0,.54,0,1.08,0,1.62,0,.12,0,.24.01.39.02v5.3h4.33c0,.22,0,.41,0,.59,0,1.4.01,2.81.02,4.21,0,.2-.01.41-.02.61h17.25c0-.2,0-.4,0-.6,0-1.47,0-2.95,0-4.42v-.4c.1-.01.18-.03.25-.03,0,0,0,0,0,0,1.25,0,2.5.01,3.74.03,0,0,.01,0,.02,0,.2,0,.29-.06.29-.35-.01-1.55-.01-3.09,0-4.64,0-.23-.06-.31-.25-.31h0c-.74,0-1.48,0-2.22,0-1.95,0-3.9,0-5.85,0h0c-.21,0-.3.05-.3.36.02,1.52,0,3.05.01,4.57,0,.28-.05.4-.3.4h0c-.71,0-1.41,0-2.12,0-2,0-4.01,0-6.01.01h0c-.16,0-.22-.06-.22-.27,0-1.56,0-3.12,0-4.68,0-.29-.05-.39-.29-.39,0,0,0,0,0,0-.28,0-.56,0-.84,0-.85,0-1.69,0-2.54,0-.12,0-.25,0-.37,0h0c-.2,0-.27-.06-.26-.32.02-.36,0-.72,0-1.08,0-4.78-.02-9.57-.03-14.35,0-.09.02-.18.03-.3h.34c.63,0,1.27,0,1.9,0,.58,0,1.15,0,1.73,0,0,0,0,0,.01,0,.24,0,.32-.09.32-.4-.01-1.4,0-2.81,0-4.21,0-.24,0-.47,0-.72.09-.01.14-.03.18-.03h0c2.47,0,4.95.01,7.42.01.26,0,.53,0,.79,0h0c.21,0,.26.09.26.34,0,1.2,0,2.4,0,3.6,0,.45,0,.9,0,1.36.08.02.11.03.15.03,2.75,0,5.5,0,8.24,0h0c.19,0,.22-.12.21-.31,0-1.55,0-3.09,0-4.64,0-.27-.05-.37-.28-.37,0,0,0,0-.01,0-1.2.02-2.4.01-3.6.02-.05,0-.09,0-.14,0-.09,0-.17,0-.27,0v-5.34h0Z"/><path class="cls-1" d="m77.39,57.8v-1.36c-.03-1.24-.04-2.48-.04-3.72v-29.99s0-1.45,0-1.45h7.72s.02.91.02,1.09v29.47c0,.21,0,.42-.01.63-.01.18,0,.43.18.63.2.21.47.21.57.21,4.53,0,9.06,0,13.58,0h2.93s-.02,4.49-.02,4.49h-24.92Z"/><path class="cls-3" d="m84.62,21.74s0,.07,0,.1c0,.18,0,.36,0,.54v29.27s0,.2,0,.2c0,.2,0,.4-.01.6-.03.4.07.73.29.97.22.24.52.36.9.36,4.56,0,9.12,0,13.68,0h2.38s0,1.42,0,1.42v2.17h-24.03v-.86c-.02-1.26-.04-2.52-.04-3.77,0-6.91,0-13.81,0-20.72v-9.27c0-.33,0-.67,0-1h6.83m.92-.9h-8.65c0,.63,0,1.27,0,1.9,0,10,0,19.99,0,29.99,0,1.84.03,3.69.05,5.53h25.84s-.03-.09-.03-.13c0-1.71.01-3.42.02-5.14,0-.02-.02-.04-.05-.12-.15,0-.3,0-.46,0-.11,0-.21,0-.32,0-5.38,0-10.76,0-16.13,0h0c-.22,0-.32-.07-.29-.36.02-.29.01-.57.01-.86,0-9.76,0-19.51,0-29.27,0-.36-.01-.72-.02-1.08,0-.15.02-.31.03-.46h0Z"/><path class="cls-2" d="m174.49,116.77s-.04-4.68-.04-4.68c0-.08,0-.16-.01-.24l-.04-.41-.42-.09h-2.04c-.6,0-1.2,0-1.8,0,0-1.14,0-2.29,0-3.43v-1.11c0-.08,0-.17-.01-.25l-.03-.42-.42-.1h-4.74l-.02.56c0,.09,0,.18,0,.26,0,0,.01,5.78.01,7.44,0,.64,0,1.29-.02,1.93v.52h-7.68c0-.12-.01-.25-.01-.37v-35.48s0-.66,0-.66h24.99v5.33h4.29s0,1.96,0,1.96c0,4.37,0,8.74,0,13.11-1.49,0-8.59,0-8.59,0l-.04.41c-.02.15-.02.2-.02.25v1.41c0,1.17,0,2.34,0,3.52,0,.09,0,.35.19.54.18.18.4.18.5.18,1.18,0,2.32,0,3.46.02.07,0,.14,0,.21,0v5.25h4.47v.24c0,1.33,0,2.66,0,4,0,.1,0,.2-.02.29h-12.17Zm-8.85-32.1c-.33,0-.71.14-.71.8,0,3.85,0,7.7,0,11.54v3.85c0,.06,0,.12,0,.19l.05.4.41.08h9.09l.03-.68v-1.11c-.02-1.17-.03-2.34-.04-3.51.41,0,.79,0,1.17,0,0,0,2.43,0,2.43,0,.09,0,.34,0,.52-.19.18-.18.2-.42.2-.58,0-3.32,0-6.64,0-9.96,0-.68-.4-.83-.73-.83-1.91,0-3.82,0-5.73,0-2.22,0-6.67,0-6.67,0Z"/><path class="cls-3" d="m181.75,80.7v5.33h1.15s.11,0,.11,0h.96s.85,0,.85,0h1.22s0,1.81,0,1.81c0,4.11,0,8.22,0,12.36-1.32,0-2.64,0-3.96,0h-1.71s-1.71,0-1.71,0h-1.17l-.08.82v.07c-.02.09-.02.16-.02.22v1.42c0,1.17,0,2.33,0,3.5,0,.36.11.65.32.86.31.31.69.31.85.31h0c1.06,0,2.12,0,3.18.01v5.26h4.47v.1c0,1.18,0,2.36,0,3.53h-11.29l-.02-2.03-.02-2.2c0-.08,0-.17-.02-.26v-.09s-.07-.83-.07-.83h-1.87s-1.02,0-1.02,0c-.44,0-.89,0-1.33,0,0-1.01,0-2.01,0-3.02v-1.07c0-.09,0-.18-.01-.27v-.09s-.05-.85-.05-.85h-6.02l-.03.87v.12c0,.1-.01.19-.01.29v2.45c.01,1.66.02,3.32.02,4.99,0,.66,0,1.32-.02,1.98v.02h-6.8v-25.32s0-10.08,0-10.08c0-.07,0-.14,0-.22h24.09m-17.19,21.28h10.33l.04-.86v-.08c0-.08.01-.14.01-.2v-1.09c-.02-1.02-.02-2.05-.04-3.07.24,0,.47,0,.71,0h1.02s1.01,0,1.01,0h.4c.34,0,.62-.11.84-.32.33-.33.33-.76.33-.9,0-3.32,0-6.64,0-9.96,0-.18,0-.61-.34-.95-.15-.15-.42-.33-.85-.33-1.88,0-3.76,0-5.64,0-2.25,0-4.5,0-6.75,0-.51,0-.8.24-.94.44-.22.31-.22.65-.22.8,0,3.92,0,7.84,0,11.76v3.63c0,.08,0,.16.01.25v.06s.09.81.09.81m18.09-22.18h-25.9c0,.37.01.74.01,1.11,0,11.83,0,23.65,0,35.48,0,.27.03.55.04.82h8.54c.01-.97.03-1.93.03-2.9,0-2.48-.01-4.96-.02-7.44,0-.12,0-.23.01-.37h4.3c0,.11.02.21.02.32,0,1.53,0,3.07,0,4.6,0,.32.07.39.31.39,0,0,.01,0,.02,0,.64,0,1.27-.01,1.91-.01.68,0,1.37,0,2.06,0,0,.11.02.2.02.29.01,1.51.02,3.02.03,4.53,0,.2.01.4.02.59h13.01c.02-.25.06-.49.06-.74,0-1.5,0-3,0-4.49,0-.06,0-.12-.02-.19h-4.45v-5.22c-.24-.01-.45-.04-.66-.04-1.14,0-2.28-.01-3.42-.02h0s-.02,0-.03,0c-.14,0-.24,0-.24-.27,0-1.64,0-3.28,0-4.93,0-.06,0-.11.02-.21h.35c1.14,0,2.28,0,3.42,0,1.5,0,3,0,4.51,0,0,0,0,0,0,0,.25,0,.35-.05.35-.41-.01-5.01,0-10.02,0-15.03,0-.52,0-.53-.4-.53h-.02c-.57,0-1.13,0-1.7,0s-1.14,0-1.71,0h-.46v-5.33h0Zm-17.27,21.28c0-.09-.02-.15-.02-.22,0-5.13.02-10.26.01-15.39,0-.27.05-.35.27-.35h0c2.25,0,4.5,0,6.75,0,1.88,0,3.76,0,5.64,0h0c.24,0,.28.11.28.38,0,3.32,0,6.64,0,9.96,0,.26-.08.32-.27.32,0,0,0,0,0,0-.13,0-.27,0-.4,0-.68,0-1.35,0-2.03,0-.43,0-.86,0-1.28,0,0,0-.01,0-.02,0-.28,0-.32.13-.31.43.02,1.55.03,3.09.04,4.64,0,.07,0,.14-.01.23h-8.66Z"/><path class="cls-2" d="m195.58,54.03v-.11c-.02-.39-.03-.77-.03-1.16,0-6.47,0-12.94,0-19.42,0-.67-.44-.77-.71-.77h-1.03s-3.48,0-3.48,0v5.32h-3.4s0-3.39-.01-4.31v-.19c0-.23,0-.45-.17-.62-.17-.18-.4-.18-.56-.18h-3.78c-.06,0-.57.03-.57.03l-.11.4c0,.13-.01.18-.01.23v20.14c0,.22,0,.43-.02.65h-7.7c0-.06,0-1.48,0-1.48,0-.71,0-1.42,0-2.13V17.51h7.74v4.65c0,.07.01.14.03.22l.07.37.39.09h2.39c.47,0,.95,0,1.42,0,0,.97,0,5.3,0,5.3h5.22v-2.04c0-1.08,0-2.17,0-3.25,0,0,3.56,0,3.56,0,.1,0,.36,0,.55-.2.18-.18.21-.43.21-.63,0-1.03,0-2.06,0-3.09v-1.42h7.72v1.2s0,32.56,0,32.56c0,0,0,2.71,0,2.75h-7.69Z"/><path class="cls-3" d="m202.83,17.96c0,.25,0,.5,0,.75v15.44s0,17.12,0,17.12c0,.47,0,.94,0,1.41v.9h-6.81c0-.27-.02-.55-.02-.82,0-6.47,0-12.94,0-19.42,0-.14,0-.57-.33-.9-.21-.21-.49-.32-.84-.32h0c-.34,0-.68,0-1.01,0h-1.31s-.86,0-.86,0h-.32s-.26,0-.26,0h-.29s-.9,0-.9,0v5.32h-2.5v-.98c0-.96,0-1.92-.01-2.88v-.19c0-.27.01-.64-.3-.95-.31-.31-.68-.31-.89-.31h-.05s-.09,0-.09,0h-1.55s-1.38,0-1.38,0h-.7c-.07,0-.14,0-.21,0h-.07s-.8.05-.8.05l-.05.8v.07c-.01.07-.01.13-.01.19v5.35c0,4.93,0,9.86,0,14.79,0,.07,0,.13,0,.2h-6.82v-1.08c-.01-.7-.02-1.39-.02-2.09v-25.91s0-5,0-5v-1.54h6.84c0,1.4,0,2.8,0,4.21,0,.1.01.19.03.3v.06s.13.76.13.76h.92s.13,0,.13,0h.13s.93,0,.93,0h1.05c.32,0,.64,0,.97,0,0,.78,0,1.56,0,2.34v1s0,.71,0,.71v.35s0,.9,0,.9h6.12v-2.48c0-.93,0-1.86,0-2.82.11,0,.22,0,.33,0h.95s.94,0,.94,0c.29,0,.59,0,.9,0,.36,0,.65-.11.86-.33.34-.34.34-.78.34-.95,0-1.01,0-2.02,0-3.03v-1.03h6.82m.9-.9h-8.65c.01.13.03.26.03.39,0,1.52-.02,3.04-.02,4.57,0,.3-.07.38-.3.38,0,0,0,0,0,0-.3,0-.6,0-.89,0-.63,0-1.26,0-1.89,0-.3,0-.6,0-.91,0,0,0,0,0,0,0-.25,0-.32.09-.32.41.01,1.5,0,3,0,4.49v.4h-4.33c0-.37,0-.71,0-1.05,0-1.28,0-2.56,0-3.85,0-.31-.07-.4-.32-.4,0,0,0,0-.01,0-.51,0-1.02,0-1.54,0-.66,0-1.32,0-1.97,0-.04,0-.09,0-.13,0-.09,0-.18,0-.28,0-.01-.09-.03-.16-.03-.23,0-1.64,0-3.28,0-4.92,0-.06.01-.12.02-.18h-8.65c0,.81,0,1.63,0,2.44,0,10.3,0,20.61,0,30.91,0,1.15.01,2.3.02,3.45,0,.2-.01.41-.02.61h8.59c.01-.37.04-.73.04-1.1,0-6.71,0-13.42,0-20.14,0-.06,0-.12.01-.2.08,0,.16-.01.23-.01.69,0,1.38,0,2.08,0,.52,0,1.03,0,1.55,0,0,0,.02,0,.03,0,.04,0,.08,0,.12,0,.34,0,.28.02.28.55,0,1.46,0,2.92.01,4.39,0,.12,0,.23.01.37h4.28v-5.32c.2,0,.38,0,.55,0,.11,0,.21,0,.31,0,.72,0,1.45,0,2.17,0,.34,0,.68,0,1.02,0,0,0,0,0,0,0,.19,0,.26.06.26.32,0,6.47,0,12.94,0,19.42,0,.57.03,1.15.04,1.72h8.59c0-.19-.02-.39-.02-.58,0-.87,0-1.75,0-2.62,0-10.85,0-21.71,0-32.56,0-.55,0-1.1,0-1.65h0Z"/><path class="cls-2" d="m34.21,54.03l-.02-5.42h-2.53c-.6,0-1.19,0-1.79,0,0-.74,0-1.4,0-2.07v-3.23h-5.23s0,4.21,0,5.3c-.53,0-1.06-.01-1.58-.02-.65,0-1.31-.01-1.96-.03h-.02c-.13,0-.38,0-.57.2-.22.22-.21.53-.21.68.01,1.38.01,2.75,0,4.13,0,.15-.01.29-.03.44h-7.68V17.51h7.69v21.28h5.26s.04-.7.04-.78v-1.1c.01-1.16.02-2.32.01-3.49.56,0,1.09,0,1.62,0,.61,0,1.22,0,1.83-.02,0,.78,0,1.56,0,2.33s0,1.5,0,2.24c0,.67.48.75.69.76.82.01,1.65.03,2.47.04,0,0,1.24.02,1.25.02.09,0,.16,0,.24-.01l.42-.03.09-.43v-20.83h7.7v36.52h-7.7Z"/><path class="cls-3" d="m41.47,17.96v35.62h-6.81l-.02-3.65v-.58s0-.29,0-.29v-.9h-1.95s-1.02,0-1.02,0c-.45,0-.89,0-1.34,0,0-.54,0-1.08,0-1.62v-.75s0-1.39,0-1.39v-.63s0-.9,0-.9h-6.13v1.07s0,.32,0,.32v1.1c0,.93,0,1.85,0,2.8-.37,0-.74,0-1.11-.01-.66,0-1.31-.01-2.01-.03-.36,0-.65.11-.87.34-.35.35-.34.81-.34,1,.01,1.37.01,2.74,0,4.11h-6.81V17.96h6.79v21.28h6.13l.04-.86v-.11c.01-.09.02-.18.02-.27v-1.09c.01-1.01.02-2.01.01-3.05.39,0,.77,0,1.16,0,.46,0,.93,0,1.39,0,0,.62,0,1.24,0,1.86,0,.75,0,1.51,0,2.26,0,.73.44,1.2,1.14,1.21.83.01,1.66.03,2.49.04l1.25.02c.08,0,.17,0,.26-.02h.09s.83-.07.83-.07v-21.21h6.8m.9-.9h-8.59v21.28c-.11,0-.19.02-.28.02,0,0-.01,0-.02,0-1.24-.02-2.48-.05-3.71-.06-.18,0-.25-.06-.25-.3.01-1.53,0-3.07.01-4.6,0-.31-.05-.43-.32-.43,0,0-.01,0-.02,0-.65.01-1.3.02-1.95.02-.58,0-1.15,0-1.73-.01,0,0,0,0-.01,0-.24,0-.32.08-.32.4,0,1.55,0,3.09-.01,4.64,0,.11,0,.21-.02.33h-4.38v-21.28h-8.59v37.41h8.53c.02-.3.07-.59.07-.89,0-1.38,0-2.76,0-4.14,0-.31.05-.43.31-.43,0,0,.01,0,.02,0,1.24.03,2.48.02,3.72.05,0,0,0,0,.01,0,.24,0,.28-.13.28-.39,0-1.47,0-2.95,0-4.42,0-.15,0-.31,0-.49h4.33c0,.69,0,1.35,0,2.02,0,.96,0,1.92-.01,2.88,0,.32.08.4.32.4,0,0,0,0,.01,0,.64,0,1.27,0,1.92,0,.68,0,1.37,0,2.07,0,0,.31,0,.59,0,.87,0,1.33.01,2.66.02,3.99,0,.19,0,.37.01.56h8.59c0-.23,0-.47,0-.7,0-12.24,0-24.47,0-36.71h0Z"/><path class="cls-2" d="m114.11,116.77v-.29c-.01-.59-.02-1.17-.02-1.76,0-6.2-.02-12.4-.01-18.59,0-.67-.4-.81-.73-.81-.46,0-.91,0-1.36,0h-2.42c-.07,0-.14,0-.23.01l-.51.05v5.26s-2.76,0-3.35,0v-1.38c-.01-1.05-.01-2.1,0-3.14,0-.15,0-.43-.2-.63-.19-.19-.44-.19-.52-.19-.42,0-.82,0-1.21,0h-3.3s0,21.26,0,21.26c0,.06,0,.13,0,.19h-7.68v-36.52h7.7v5.34h1.79c.84,0,1.69,0,2.53,0,0,1.12,0,5.29,0,5.29h5.2s.04-.63.04-.69v-1.03c0-1.19,0-2.38-.02-3.57.54,0,3.58,0,3.58,0,.07,0,.14,0,.24-.01l.55-.04v-5.28h7.7s0,24.62,0,33.39c0,.81-.02,1.63-.03,2.44v.69h-7.67Z"/><path class="cls-3" d="m121.37,80.7v6.81c0,8.71,0,17.42,0,26.13,0,.81-.02,1.62-.03,2.43v.25h-6.77c0-.53-.02-1.07-.02-1.6,0-6.2-.02-12.4-.01-18.59,0-.15,0-.54-.27-.86-.22-.26-.52-.39-.93-.39h0c-.44,0-.88,0-1.32,0h-1.32s-1.13,0-1.13,0c-.08,0-.17,0-.28.02h-.1s-.82.09-.82.09v5.23h-.13s-1,0-1,0c-.45,0-.89,0-1.33,0v-1c0-1.02-.01-2.05,0-3.07,0-.18,0-.61-.33-.95-.21-.21-.5-.32-.86-.32h0c-.39,0-.79,0-1.18,0h-1.08s-.85,0-.85,0h-.33s-.28,0-.28,0h-.31s-.9,0-.9,0v3.88c0,5.86,0,11.72,0,17.58h-6.79v-35.62h6.8v5.34h1.06s.13,0,.13,0h.15s.91,0,.91,0c.69,0,1.37,0,2.06,0,0,.95,0,1.9,0,2.85v1.17s0,.25,0,.25v.12s0,.9,0,.9h6.08l.05-.84v-.08c.01-.08.02-.15.02-.22v-1.15c0-.99,0-1.98-.01-3,.37,0,.73,0,1.1,0h1.21s.81,0,.81,0c.08,0,.16,0,.27-.01h.13s.84-.06.84-.06v-5.25h6.8m.9-.9h-8.59v5.31c-.16,0-.25.02-.34.02-.67,0-1.35,0-2.02,0-.55,0-1.11,0-1.66,0,0,0,0,0-.01,0-.25,0-.34.07-.33.42.02,1.55.02,3.09.02,4.64,0,.07,0,.14-.01.24h-4.33c0-.13,0-.25,0-.37,0-1.52,0-3.04,0-4.57,0-.29-.08-.36-.29-.36,0,0,0,0-.01,0-1.19.01-2.38,0-3.57.01-.05,0-.1,0-.15,0-.09,0-.18,0-.3,0v-5.34h-8.59c0,12.24,0,24.48,0,36.72,0,.23,0,.46,0,.69h8.54c.02-.21.06-.43.06-.64,0-6.77,0-13.55,0-20.32v-.5c.21,0,.4,0,.59,0,.11,0,.22,0,.33,0,.65,0,1.29,0,1.94,0,.4,0,.8,0,1.2,0,0,0,0,0,.01,0,.23,0,.27.1.27.37,0,1.55,0,3.09,0,4.64,0,.2.01.34.23.34,0,0,0,0,0,0,.66,0,1.33,0,2,0s1.34,0,2.03,0v-5.31c.13-.01.21-.03.29-.03h0c.82,0,1.63,0,2.45,0,.44,0,.89,0,1.33,0,0,0,0,0,.01,0,.22,0,.28.06.28.36,0,6.2,0,12.4.01,18.59,0,.83.02,1.67.03,2.5h8.54c.02-1.19.06-2.38.06-3.58,0-11.28,0-22.56,0-33.84h0Z"/><path class="cls-2" d="m79.6,116.77c-.01-.16-.02-.32-.02-.48,0-2.21,0-9.46,0-9.46,0-.08-.02-.37-.02-.37l-.02-.43h-7.27c-1.92,0-5.77,0-5.77,0-.18,0-.4.02-.57.2-.19.19-.21.44-.21.64,0,2.97,0,5.94,0,8.92,0,.32-.01.64-.03.96v.02h-7.67c-.01-.29-.02-.58-.02-.87v-25.01h4.35v-5.3s3.61,0,3.62,0c.13,0,.34,0,.51-.17.18-.18.18-.43.18-.51,0-1.32-.02-4.66-.02-4.66h11.99v5.29l.54.04c.09,0,.17.01.25.01h1.95c.54,0,1.07,0,1.61,0-.01,1.2-.01,2.4-.01,3.6v.96c0,.07,0,.14.01.23l.04.54h4.26v2.45c.01,1.66.02,3.32.02,4.99,0,6.07,0,12.13-.02,18.2,0,.07,0,.15-.01.22h-7.66Zm-13.87-15.25h13.83v-11.52h-2.57c-.57,0-1.14,0-1.71,0,0-.72,0-1.4,0-2.07,0-.82,0-1.63,0-2.45,0-.15,0-.43-.2-.63-.19-.19-.44-.19-.52-.19-.41,0-.8,0-1.2,0h-3.32s0,5.34,0,5.34h-4.3v11.51Z"/><path class="cls-3" d="m78.16,80.7v5.26l.84.05h.12c.1.02.19.02.28.02h.82s1.15,0,1.15,0c.38,0,.76,0,1.14,0,0,1.04,0,2.07,0,3.11v1c0,.09,0,.17.02.27v.11s.07.83.07.83h4.23v1.86c.01,1.71.02,3.41.02,5.12,0,5.99,0,11.98-.01,17.97h-6.8s0-.02,0-.03c0-2.2,0-4.4,0-6.6v-2.86c0-.09,0-.17-.01-.27v-.12s-.05-.85-.05-.85h-1.14s-.13,0-.13,0h-2.24s-4.02,0-4.02,0c-1.98,0-3.95,0-5.94,0-.14,0-.56,0-.89.33-.34.34-.34.79-.34.96,0,2.97,0,5.94,0,8.91,0,.18,0,.35-.01.53h-6.8c0-.14,0-.28,0-.42,0-6.86,0-13.71,0-20.57v-3.99h4.34v-5.3h.27s1.08,0,1.08,0h1.85c.32,0,.59-.1.79-.3.21-.21.31-.49.31-.83,0-1.29-.01-2.57-.01-3.86v-.35s11.09,0,11.09,0m-8.59,8.86h-4.3v12.41h14.73v-12.42h-1.24s-.92,0-.92,0h-.91c-.4,0-.81,0-1.21,0,0-.54,0-1.07,0-1.61,0-.82,0-1.64,0-2.46,0-.18,0-.62-.33-.95-.21-.21-.5-.32-.86-.32h0c-.4,0-.8,0-1.19,0-.49,0-.98,0-1.47,0h-.96s-.15,0-.15,0h-.13s-.15,0-.15,0h-.9v5.35m9.49-9.75h-12.89c0,1.7,0,3.41.02,5.11,0,.22-.09.23-.21.23-.01,0-.03,0-.04,0-.6,0-1.21,0-1.81,0-.64,0-1.29,0-1.93,0h-.31v5.3h-4.34c0,.2,0,.36,0,.53,0,8.31,0,16.62,0,24.93,0,.44.03.88.04,1.32h8.54c.01-.48.04-.95.04-1.43,0-2.97.01-5.95,0-8.92,0-.33.08-.39.33-.39h0c1.98,0,3.96,0,5.93,0,2.09,0,4.17,0,6.26,0,.04,0,.09,0,.13,0,.09,0,.18,0,.29,0,0,.14.02.25.02.35,0,3.15,0,6.31,0,9.46,0,.31.04.62.06.93h8.48c.02-.22.07-.45.07-.67,0-6.07.01-12.13.02-18.2,0-2.49-.01-4.99-.02-7.48,0-.12,0-.24,0-.4h-4.29c0-.14-.02-.23-.02-.32,0-1.53,0-3.07.01-4.6,0-.31-.07-.41-.31-.41,0,0,0,0-.01,0-.57,0-1.14,0-1.72,0-.66,0-1.31,0-1.97,0-.1,0-.21-.01-.35-.02v-5.31h0Zm-12.89,21.27v-10.61h4.3v-5.35c.1,0,.19,0,.28,0,.05,0,.1,0,.15,0,.81,0,1.62,0,2.43,0,.4,0,.8,0,1.2,0,0,0,0,0,0,0,.24,0,.27.1.27.37,0,1.55,0,3.09,0,4.64,0,.28.09.33.28.33,0,0,0,0,0,0,.61,0,1.21,0,1.82,0s1.22,0,1.83,0h0c.1,0,.21,0,.34,0v10.62h-12.93Z"/><path class="cls-2" d="m143.81,54.03c0-.06-.02-5.42-.02-5.42h-4.34v-25.77h1.58c.67,0,1.35,0,2.02,0h0c.11,0,.35,0,.53-.19.18-.18.2-.41.2-.6,0-1.25,0-2.5,0-3.75v-.8h20.65v.72c0,1.3,0,2.6,0,3.9,0,.09,0,.35.19.54.18.18.41.18.5.18,1,0,3.64,0,3.64,0,0,0-.01,8.59-.01,10.81,0,4.98,0,9.97.01,14.95h-3.61c-.09,0-.33,0-.52.2-.18.18-.2.41-.2.61,0,1.46,0,2.92,0,4.38,0,.08,0,.15-.01.23h-20.62Zm3.38-5.29c0,.14,0,.42.2.62.12.13.3.19.52.19,3.18,0,6.36,0,9.54,0h2.91c.07,0,.14,0,.21-.02l.39-.05.07-.4v-27.13h-13.84s0,18.66,0,26.8Z"/><path class="cls-3" d="m163.99,17.96v.33c0,1.28,0,2.56,0,3.84,0,.35.11.64.32.86.31.31.69.31.83.31h0c.96,0,1.92,0,2.89,0h.29s0,3.42,0,3.42c0,2.31,0,4.62,0,6.94,0,4.83,0,9.66.01,14.5-.44,0-.88,0-1.31,0-.47,0-.94,0-1.41,0h-.44c-.34,0-.62.11-.84.32-.33.34-.33.77-.33.94,0,1.39,0,2.77,0,4.16h-19.73v-2.67s-.02-1.25-.02-1.25v-.39s0-.21,0-.21v-.9h-4.34v-24.87h.12s1.03,0,1.03,0c.67,0,1.34,0,2.03,0,.35,0,.63-.11.84-.32.33-.33.33-.77.33-.92,0-1.24,0-2.49,0-3.73v-.36h19.75m-16.09,32.04h0c3.14,0,6.29,0,9.43,0h3.02c.09,0,.18,0,.31-.03l.81-.08v-28.39h-14.74v1.53s0,1.24,0,1.24v3.32c0,7.06,0,14.11,0,21.17,0,.23.02.5.19.76.12.18.4.49.97.49m16.99-32.93h-21.54c0,1.67,0,3.33,0,5,0,.28-.07.34-.27.34,0,0,0,0-.01,0-.67,0-1.34,0-2.01,0-.56,0-1.11,0-1.67,0-.12,0-.24.01-.37.02v26.65h4.34c0,.23,0,.41,0,.6,0,1.4.01,2.81.02,4.21,0,.2-.01.41-.02.61h21.48c.02-.22.06-.45.06-.67,0-1.46.01-2.92,0-4.39,0-.27.05-.35.27-.35h0c.14,0,.29,0,.43,0,.94,0,1.89,0,2.83,0,.18,0,.36,0,.53,0h0c.19,0,.25-.06.25-.3,0-5.03-.01-10.07-.01-15.1,0-3.63,0-7.26.01-10.9,0-.11-.01-.21-.02-.37-.07,0-.13,0-.19,0-.03,0-.07,0-.1,0-1.26,0-2.52,0-3.77,0,0,0,0,0,0,0-.15,0-.24-.03-.24-.27,0-1.69,0-3.38,0-5.07h0Zm-16.99,32.04c-.23,0-.26-.1-.26-.36,0-8.16,0-16.33,0-24.49,0-.61,0-1.22,0-1.86h12.94v26.68c-.07,0-.15.02-.22.02-4.15,0-8.3,0-12.45,0h0Z"/><path class="cls-2" d="m32.13,116.77v-5.44h-1.94c-.8.01-1.6.02-2.4.03.01-1.15.01-2.31,0-3.46v-1.13c0-.06,0-.13-.01-.21l-.04-.53h-2.75c-.5,0-1,0-1.5,0,0-3.49,0-15.13,0-15.13h4.29l.02-.57c0-.11,0-.2,0-.29v-.88c-.01-1.19-.02-2.38-.03-3.58.69,0,2.62,0,2.62,0h1.73v-5.33h20.64s0,4.42,0,4.42h-16.48c-.08,0-.16,0-.24.01l-.4.02-.12.41c-.01.16-.01.22-.01.28v1.09c0,1.17,0,2.35,0,3.52-.56,0-2.59,0-2.59,0h-1.69v16.96h2.52c.59,0,1.17,0,1.76,0,0,.86,0,1.73,0,2.59v1.96c0,.14,0,.41.19.6.12.12.29.19.5.19,2.03,0,4.05-.01,6.07-.01h2.76v-11.64h-4.3v-4.41s7.61,0,7.61,0c1.47,0,2.94,0,4.42,0,0,.35,0,.65,0,.95v19.59s-20.64,0-20.64,0Z"/><path class="cls-3" d="m52.33,80.7v.41s0,3.11,0,3.11h-3.93s-12.1,0-12.1,0c-.09,0-.19,0-.28.01h-.09s-.8.06-.8.06l-.05.8v.09c-.01.08-.02.14-.02.21v1.09c0,1.02,0,2.04,0,3.07-.39,0-.77,0-1.16,0h-.96s-.95,0-.95,0h-1.21v17.86h1.94s1.04,0,1.04,0c.43,0,.86,0,1.29,0,0,.72,0,1.44,0,2.16,0,.64,0,1.29,0,1.93,0,.18,0,.59.33.92.15.15.41.32.83.32,2.06,0,4.13-.01,6.19-.01h1.61s.2,0,.2,0h.18s.2,0,.2,0h.9v-12.53h-4.3v-3.51h1.17s3.46,0,3.46,0h1.2s1.47,0,1.47,0c1.27,0,2.55,0,3.82,0,0,.17,0,.34,0,.51v.38s0,18.75,0,18.75h-19.74v-5.43h-1.1s-.18,0-.18,0h-.22s-.87,0-.87,0c-.65,0-1.31,0-1.97.02,0-1.01,0-2.01,0-3.02v-1.12c0-.08,0-.15-.02-.25v-.1s-.07-.83-.07-.83h-2.18s-1.01,0-1.01,0c-.34,0-.69,0-1.03,0,0-3.29,0-6.58.01-9.87v-2.24s0-2.04,0-2.04v-.07s3.41,0,3.41,0h.86l.03-.86v-.14c.01-.11.02-.21.02-.31v-.94c-.01-1.02-.02-2.04-.03-3.07.53,0,1.06,0,1.59,0h.56s.56,0,.56,0h.38s.1,0,.1,0h.1s.14,0,.14,0h.9v-5.33h19.75m.9-.9h-21.54v5.33c-.1,0-.17,0-.24,0-.03,0-.07,0-.1,0-.13,0-.26,0-.38,0-.38,0-.75,0-1.13,0-.73,0-1.45,0-2.18,0,0,0,0,0-.01,0-.23,0-.31.08-.31.38.02,1.51.03,3.02.03,4.53,0,.13,0,.25-.02.42h-4.3c0,1.03,0,2.02,0,3.01,0,4.22,0,8.44-.01,12.66,0,.3.09.36.29.36,0,0,0,0,0,0,.54,0,1.09,0,1.63,0,.64,0,1.28,0,1.91,0,.05,0,.09,0,.14,0,.1,0,.19,0,.3,0,0,.13.02.21.02.29,0,1.53.01,3.07,0,4.6,0,.34.07.44.33.44,0,0,.02,0,.03,0,1.13-.03,2.26-.03,3.4-.04.07,0,.14,0,.21,0,.12,0,.25,0,.38,0v4.81c0,.21,0,.41,0,.62h21.54c0-.22,0-.44,0-.66,0-6.33,0-12.66,0-18.99,0-.47-.01-.94,0-1.4.01-.31-.08-.38-.31-.38h0c-1.47,0-2.94,0-4.42,0-.89,0-1.78,0-2.67,0-1.69,0-3.39,0-5.08,0-.05,0-.11,0-.16,0-.09,0-.19,0-.29,0v5.31h4.3v10.74c-.13,0-.26,0-.37,0-.07,0-.13,0-.2,0-2.6,0-5.21,0-7.81.01h0c-.22,0-.25-.11-.25-.34,0-1.52,0-3.05,0-4.57,0-.32-.06-.43-.33-.43,0,0,0,0-.01,0-.62,0-1.24.01-1.86.01-.69,0-1.38,0-2.08,0v-16.06h.31c.63,0,1.27,0,1.9,0,.58,0,1.17,0,1.75,0,0,0,0,0,0,0,.24,0,.3-.09.3-.39-.01-1.56,0-3.12,0-4.68,0-.07,0-.14.01-.25.11,0,.21-.02.31-.02,5.52,0,11.03,0,16.55,0h0c.37,0,.38,0,.38-.47,0-1.62,0-3.24,0-4.86h0Z"/><path class="cls-2" d="m47.15,54.03v-.11c-.02-.39-.03-.77-.03-1.16,0-4.66,0-9.32,0-13.98l.02-21.26h24.96v.83c0,1.2,0,2.39,0,3.58-.18,0-8.61,0-8.61,0-2.64,0-5.28,0-7.92,0-.15,0-.37.02-.55.19-.18.18-.2.41-.2.64.01,2.74.01,5.48.01,8.22v1.41c0,.83.14,1.1.98,1.1h9.56s6.72,0,6.72,0c0,.94,0,1.82,0,2.69v1.72s-17.22,0-17.22,0l-.04.53c0,.09-.02.17-.02.26v2.75c0,2.42.01,4.83,0,7.25,0,.22.02.47.21.66.2.2.47.2.56.2,4.72,0,9.45,0,14.17,0h2.33s0,4.49,0,4.49h-24.95Z"/><path class="cls-3" d="m71.66,17.96v.37c0,1.04,0,2.09,0,3.15-.02,0-.04,0-.06,0h-.53s-.51,0-.51,0h-2.37s-4.68,0-4.68,0c-2.64,0-5.28,0-7.93,0-.36,0-.65.11-.86.33-.33.34-.33.77-.33.96.01,2.8.01,5.61.01,8.41v1.23c0,.95.24,1.54,1.44,1.54h3.42s6.01,0,6.01,0c2.13,0,4.26,0,6.39,0,0,.75,0,1.49,0,2.24v1s0,.27,0,.27h-17.19l-.06.83v.11c-.02.11-.03.2-.03.3v2.73c0,2.42.01,4.85,0,7.27,0,.19,0,.63.34.98.22.22.51.33.88.33,4.51,0,9.02,0,13.53,0h2.52s0,3.59,0,3.59h-24.07c0-.27-.02-.55-.02-.82,0-4.66,0-9.32,0-13.98,0-4.04,0-8.07.01-12.11v-8.7h24.08m.9-.9h-25.9c.01.13.03.26.03.39,0,7.11-.02,14.21-.02,21.32,0,4.66,0,9.32,0,13.99,0,.57.03,1.15.04,1.72h25.84c0-.22,0-.45,0-.67,0-1.43,0-2.85,0-4.28v-.44c-.18,0-.35,0-.51,0-.08,0-.16,0-.24,0-5.4,0-10.8,0-16.2,0h0c-.26,0-.32-.09-.32-.41,0-3.33,0-6.67,0-10,0-.1.01-.21.02-.34h17.25v-1.17c0-1.26,0-2.52,0-3.78,0-.28-.06-.36-.29-.36h0c-2.33,0-4.66,0-7,0-3.14,0-6.29,0-9.43,0-.54,0-.54,0-.54-.65,0-3.21,0-6.43-.01-9.64,0-.3.05-.38.3-.38h0c2.64,0,5.29,0,7.93,0,2.35,0,4.7,0,7.05,0,.35,0,.69,0,1.04,0,.21,0,.43,0,.64,0,0,0,.01,0,.02,0,.22,0,.3-.09.3-.39-.01-1.64,0-3.29,0-4.93h0Z"/><path class="cls-2" d="m127.04,116.77c0-.12-.01-.25-.01-.37v-35.48c0-.22,0-.44,0-.66h24.99s0,3.09,0,4.19v.23s-12.67,0-16.51,0h0c-.12,0-.37,0-.57.2-.18.18-.21.43-.21.65.02,3.19.01,6.38.01,9.57,0,.45,0,.68.15.89.2.27.51.27.81.27h3.51c4.26,0,8.53,0,12.79-.01,0,1.05,0,2.1,0,3.15v1.27s-16.42,0-16.42,0c-.26,0-.49,0-.68.19-.19.19-.19.42-.19.77,0,3.32.01,6.59,0,9.86,0,.19.02.44.21.62.19.19.44.19.56.19,4.48,0,16.29,0,16.29,0h.17v4.49h-24.91Z"/><path class="cls-3" d="m151.56,80.7v.46c0,1.02,0,2.04,0,3.06h-4.19c-3.95,0-7.91,0-11.87,0-.14,0-.56,0-.88.33-.34.34-.34.79-.34.96.02,3.19.01,6.38.01,9.6,0,.45,0,.81.25,1.14.34.44.82.44,1.21.44h3.3c4.17,0,8.34,0,12.51-.01,0,.91,0,1.83,0,2.74v.79s-7.76,0-7.76,0h-8.22c-.29,0-.68,0-1,.32-.32.32-.32.71-.32,1.13,0,3.27.01,6.54,0,9.82,0,.15,0,.6.34.94.32.32.72.33.88.33h0c4.6,0,9.2,0,13.81,0h2.21s0,3.59,0,3.59h-24.03v-25.47s0-9.93,0-9.93c0-.07,0-.14,0-.22h24.09m.9-.9h-25.9c0,.37.01.74.01,1.11,0,11.83,0,23.65,0,35.48,0,.27.03.55.04.82h25.78v-5.39c-.11,0-.23,0-.36,0-.09,0-.17,0-.26,0-5.43,0-10.86,0-16.29,0h0c-.22,0-.32-.04-.32-.37,0-3.27,0-6.55,0-9.82,0-.55-.01-.55.42-.55,5.48,0,10.95,0,16.43,0h.43c0-.13.01-.25.01-.36,0-1.51,0-3.02,0-4.53,0-.32-.06-.43-.34-.43h0c-5.46.01-10.92.01-16.37.01-.01,0-.02,0-.03,0-.54,0-.53-.01-.53-.71,0-3.19,0-6.38-.01-9.57,0-.34.08-.39.32-.39h0c3.95,0,7.91,0,11.86,0,1.51,0,3.03,0,4.54,0h0c.13,0,.24,0,.31,0,.3,0,.23-.06.24-.68,0-1.55,0-3.09,0-4.64h0Z"/><path class="cls-2" d="m208.53,54.03c0-.24-.02-.49-.02-.73V18.72c0-.39,0-.77-.01-1.16v-.04h24.97s0,.48,0,.48c0,1.31,0,2.63.02,3.94-4.45,0-8.89,0-13.32,0h-3.94s0,10.35,0,10.35c0,.48,0,.74.18.96.21.26.51.26.89.26h3.54c4.21,0,8.42,0,12.64,0,0,1.13,0,4.42,0,4.42h-17.22l-.03.6c0,.11-.01.2-.01.3v9.96c0,.13,0,.4.2.6.12.12.3.19.51.19l16.57-.02c0,1.27-.01,2.45-.01,3.63,0,0,0,.81,0,.87h-24.94Z"/><path class="cls-3" d="m233.01,17.96v.07c0,1.15,0,2.29.01,3.46-4.39,0-8.78,0-13.18,0h-2.53s-.23,0-.23,0h-.42s-.9,0-.9,0v3.62s0,7.18,0,7.18c0,.51,0,.87.26,1.21.35.45.86.45,1.26.45h3.45c4.09,0,8.18,0,12.28,0,0,.91,0,1.83,0,2.74v.77h-17.2l-.04.86v.15c-.01.12-.02.23-.02.34v2.91c0,2.35,0,4.7,0,7.05,0,.22.02.5.2.76.12.18.4.47.95.47,2.65,0,5.29,0,7.94-.01,2.72,0,5.45,0,8.18-.01,0,.99-.01,1.99-.01,2.98v.62h-24.06c0-.09,0-.19,0-.28v-19.73s0-14.85,0-14.85c0-.25,0-.5,0-.75h24.06m.92-.9h-25.9c0,.55.02,1.1.02,1.65,0,11.53,0,23.05,0,34.58,0,.39.02.79.04,1.18h25.84c0-.21-.02-.41-.02-.62,0-1.46,0-2.93.02-4.39,0-.33-.08-.39-.33-.39h0c-5.56.01-11.13.01-16.69.02h0c-.22,0-.25-.1-.25-.33,0-3.32,0-6.64,0-9.96,0-.14.01-.28.02-.45h17.22c0-.12.02-.22.02-.31,0-1.53,0-3.07.01-4.6,0-.33-.09-.4-.33-.4h0c-5.43,0-10.86,0-16.29,0-.01,0-.02,0-.03,0-.6,0-.6-.01-.6-.77,0-3.15,0-6.31,0-9.46v-.44c.15,0,.29,0,.42,0,.08,0,.15,0,.23,0,5.44,0,10.88,0,16.31.01h0c.23,0,.3-.09.3-.37-.01-1.46-.01-2.93-.02-4.39,0-.19.01-.38.02-.57h0Z"/><path class="cls-2" d="m196.04,116.77l-.02-4.64c0-.08-.04-.78-.04-.78h-4.26v-4.46h3.75c1.34,0,2.69,0,4.03,0-.02,1.07-.03,2.15-.05,3.22v.5c0,.27,0,.54,0,.83v.79s.41.04.41.04c.15.02.23.03.3.03h7.92s4.45,0,4.45,0c.11,0,.43,0,.63-.28.13-.18.15-.39.15-.6,0-2.57,0-5.15,0-7.72v-3.03s-13.62,0-17.25,0c0-.81,0-1.54,0-2.28,0-.75,0-1.51,0-2.26,0-.19-.02-.44-.2-.62-.17-.17-.38-.19-.53-.19-.56,0-1.11,0-1.65,0-.65,0-1.31,0-1.96.01,0-2.35,0-4.7,0-7.06v-2.69h2.29c.43,0,1.31,0,1.31,0,.1,0,.34,0,.53-.19.2-.2.2-.48.2-.63,0-1.28,0-2.55.02-3.83v-.68h16.35v5.33h2.73c.52,0,1.04,0,1.56,0,0,1.48-.02,2.95,0,4.43-1.49,0-7.73,0-7.73,0v-1.04c0-1.14,0-2.29,0-3.43,0-.22-.02-.47-.21-.65-.18-.18-.41-.2-.56-.2-1.03,0-8.07,0-8.07,0-.07,0-.14,0-.22.02l-.38.06-.09.4v11.09h6.14c3.71,0,7.42,0,11.12,0,0,1.22,0,2.44,0,3.66v.92c0,.07,0,.15.01.23l.03.41.42.1h3.84v9.78h-.63c-.9.01-1.8.02-2.69.02h-.28c-.08,0-.34,0-.53.2-.2.21-.18.5-.17.61.01.2,0,.41,0,.62l-.04,4h-20.6Z"/><path class="cls-3" d="m211.95,80.7v5.33h2.24s.95,0,.95,0c.37,0,.74,0,1.11,0,0,1.12-.01,2.3,0,3.52-1.29,0-2.58,0-3.87,0h-1.76s-1.2,0-1.2,0v-.54c0-1.16,0-2.32,0-3.49,0-.17,0-.63-.34-.97-.22-.22-.52-.33-.89-.33-1.02,0-2.04,0-3.05,0h-2.85s-2.17,0-2.17,0c-.09,0-.18,0-.28.02h-.06s-.8.1-.8.1v12.34h4.03s2.59,0,2.59,0c3.55,0,7.09,0,10.64,0,0,1.06,0,2.12,0,3.17v.96c0,.09,0,.18.02.27v.09s.07.83.07.83h4.22v8.88h-.1c-.93,0-1.85.02-2.78.02h-.28c-.44,0-.71.19-.85.34-.33.35-.31.79-.3.94.01.19,0,.39,0,.59v.25s-.04,3.02-.04,3.02v.28h-19.71v-1.51s-.02-2.68-.02-2.68c0-.09,0-.17-.01-.27v-.11s-.05-.85-.05-.85h-4.23v-3.57h1.32s1.95,0,1.95,0c1.2,0,2.4,0,3.6,0-.02.94-.03,1.88-.04,2.83v.44c0,.27,0,.54,0,.83v.39s0,.82,0,.82l.82.08h.07c.1.02.19.03.28.03h2.98s4.89,0,4.89,0c1.5,0,3,0,4.5,0,.37,0,.66-.11.89-.33.34-.35.34-.8.34-.99,0-2.59,0-5.18,0-7.78v-2.15s0-.38,0-.38v-.9h-3.89s-2.54,0-2.54,0c-3.61,0-7.21,0-10.83,0,0-.6,0-1.21,0-1.81,0-.76,0-1.52,0-2.28,0-.16,0-.6-.33-.94-.21-.21-.5-.32-.87-.32h0c-.54,0-1.08,0-1.63,0-.5,0-1.01,0-1.51,0,0-2.24,0-4.49,0-6.73v-2.12h.57c.43,0,.86,0,1.3,0s.85,0,1.3,0c.34,0,.63-.11.84-.32.33-.33.33-.76.33-.95,0-1.24,0-2.47.01-3.71v-.36h15.46m.9-.9h-17.25c0,1.65-.02,3.31-.02,4.96,0,.27-.04.37-.27.37,0,0,0,0-.01,0-.43,0-.86,0-1.29,0-.74,0-1.48,0-2.23,0-.06,0-.12,0-.18,0-.11,0-.22,0-.34,0,0,.16-.02.28-.02.41,0,3.27,0,6.55,0,9.82,0,.32.06.42.32.42,0,0,.01,0,.02,0,1.24-.02,2.48,0,3.71-.02,0,0,0,0,.01,0,.21,0,.28.06.28.36,0,1.53.01,3.07,0,4.6,0,.34.1.39.34.39h0c3.8,0,7.59,0,11.39,0,1.69,0,3.38,0,5.08,0h.45v.38c0,3.31,0,6.62,0,9.93,0,.32-.06.42-.33.42h0c-1.5,0-3,0-4.5,0-2.62,0-5.24,0-7.87,0h0c-.08,0-.17-.01-.26-.02,0-.42,0-.81,0-1.2.01-1.25.03-2.49.05-3.74,0-.3-.04-.44-.32-.44,0,0,0,0,0,0-1.39,0-2.78.01-4.18.01-1.25,0-2.5,0-3.75,0h-.42v5.36h4.28c0,.13.02.23.02.34,0,1.47.01,2.95.02,4.42,0,.22,0,.44,0,.66h21.48c.01-1.4.03-2.79.04-4.19,0-.3.02-.6,0-.9-.01-.25.04-.33.25-.33h0c.09,0,.19,0,.28,0,1.15,0,2.31-.01,3.46-.02.11,0,.21-.02.32-.02v-10.65h-4.29c0-.11-.02-.2-.02-.29,0-1.53,0-3.07,0-4.6,0-.32-.07-.43-.34-.43h0c-3.73,0-7.47,0-11.2,0-1.73,0-3.45,0-5.18,0h-.54v-10.64c.09-.01.17-.03.24-.03h0c1.67,0,3.34,0,5.01,0,1.02,0,2.04,0,3.06,0,0,0,0,0,0,0,.25,0,.32.09.32.4-.01,1.51,0,3.02,0,4.53,0,.12,0,.24.02.4h.32c1.17,0,2.34,0,3.52,0,1.47,0,2.94,0,4.41,0,0,0,0,0,0,0,.27,0,.36-.08.35-.44-.02-1.49-.01-2.97,0-4.46,0-.31-.05-.43-.32-.43,0,0-.01,0-.02,0-.56.01-1.11.01-1.67.01-.63,0-1.26,0-1.89,0h-.4v-5.33h0Z"/><path class="cls-2" d="m111.07,54.03c0-.06-.02-5.42-.02-5.42h-4.33v-5.27l-.56-.03c-.1,0-.19-.01-.28-.01h-1.57c-.63,0-1.26,0-1.9,0l.02-15.13h4.26v-5.34h1.55c.69,0,1.38,0,2.07,0h0c.11,0,.35,0,.53-.19.18-.18.2-.41.2-.6,0-1.23,0-2.46,0-3.69v-.85h16.35v5.34h1.82c.83,0,1.65,0,2.48-.02,0,1.53,0,2.98,0,4.42-1.85,0-7.71,0-7.71,0v-1.89c0-.88,0-1.76,0-2.65,0-.12,0-.4-.2-.6-.12-.13-.3-.19-.51-.19h-8.21c-.05-.01-.11,0-.18,0l-.37.06-.08.39v1.81c0,1.02,0,2.04,0,3.06-.56,0-2.56,0-2.56,0h-1.69s-.05.51-.05.51c-.01.09-.02.16-.02.24l.03,14.69c0,.24,0,.48,0,.71,0,.17,0,.41.18.6.19.2.45.2.53.2h2.9s.7,0,.7,0c0,.93,0,1.86,0,2.79v1.82c0,.66.51.72.67.72,2.01,0,4.02-.01,6.03-.01h2.1c.23,0,.41-.07.54-.2.19-.19.21-.44.21-.65,0-.67,0-1.34,0-2.01,0-.82,0-1.64,0-2.47,1.9,0,7.72,0,7.72,0,0,1.5,0,2.95,0,4.4-.98-.01-1.92-.02-2.87-.03h-.73c-.07,0-.14,0-.22.01l-.4.04-.09.42v4.97h-16.33Z"/><path class="cls-3" d="m126.96,17.96v5.34h1.04s.13,0,.13,0h.15s.93,0,.93,0c.69,0,1.38,0,2.06,0,0,1.17,0,2.34,0,3.52-1.72,0-3.45,0-5.17,0h-1.64s0-.5,0-.5v-.97c0-.87,0-1.74,0-2.62,0-.16,0-.59-.33-.92-.15-.15-.41-.32-.83-.32h-.79c-1.75,0-3.5,0-5.25,0h-2.18c-.07,0-.15,0-.25.02h-.06s-.77.12-.77.12v1.02s0,.48,0,.48v1.11c0,.86,0,1.72,0,2.6-.38,0-.77,0-1.15,0h-.96s-.95,0-.95,0h-1.14l-.09.8v.08c-.03.11-.04.21-.04.31l.02,12.85v1.5s0,.33,0,.33c0,.23,0,.47,0,.7,0,.14-.03.58.3.93.21.22.5.34.86.34h.37c.42,0,.84,0,1.26,0,.42,0,.85,0,1.27,0,.08,0,.16,0,.23,0,0,.78,0,1.56,0,2.34,0,.61,0,1.21,0,1.82,0,.35.11.64.32.85.14.14.4.31.8.31,2,0,4.01-.01,6.01-.01h2.12c.44,0,.71-.18.86-.33.34-.35.34-.8.34-.97,0-.66,0-1.31,0-1.97,0-.68,0-1.36,0-2.05,1.75,0,3.5,0,5.24,0h1.57c0,1.16,0,2.32,0,3.49-.8-.01-1.61-.02-2.41-.02h-.74c-.08,0-.17,0-.27.02h-.08s-.81.09-.81.09v2.69s0,2.65,0,2.65h-15.43v-2.64s-.02-1.29-.02-1.29v-.38s0-.21,0-.21v-.9h-4.33v-5.25l-.85-.05h-.13c-.11-.02-.21-.02-.31-.02h-.71s-.91,0-.91,0c-.47,0-.93,0-1.4,0,0-3.75.01-7.5.02-11.25v-2.98h4.26v-5.34h.12s1.03,0,1.03,0c.67,0,1.34,0,2.03,0,.35,0,.63-.11.84-.32.33-.33.33-.77.33-.92,0-1.24,0-2.49,0-3.73v-.37h15.45m.9-.9h-17.25c0,1.67,0,3.33,0,5,0,.28-.07.33-.27.33,0,0,0,0-.01,0-.67,0-1.35,0-2.02,0-.56,0-1.11,0-1.67,0-.12,0-.24.01-.39.02v5.31h-4.24c-.01.07-.02.09-.02.11,0,5.19-.02,10.38-.03,15.58,0,.27.07.34.28.34,0,0,0,0,.01,0,.67,0,1.34,0,2.01,0,.54,0,1.08,0,1.62,0,.12,0,.24.01.39.02v5.3h4.33c0,.22,0,.41,0,.59,0,1.4.01,2.81.02,4.21,0,.2-.01.41-.02.61h17.25c0-.2,0-.4,0-.6,0-1.47,0-2.95,0-4.42v-.4c.1-.01.18-.03.25-.03,0,0,0,0,0,0,1.25,0,2.5.01,3.74.03,0,0,.01,0,.02,0,.2,0,.29-.06.29-.35-.01-1.55-.01-3.09,0-4.64,0-.23-.06-.31-.25-.31h0c-.74,0-1.48,0-2.22,0-1.95,0-3.9,0-5.85,0h0c-.21,0-.3.05-.3.36.02,1.52,0,3.05.01,4.57,0,.28-.05.4-.3.4h0c-.71,0-1.41,0-2.12,0-2,0-4.01,0-6.01.01h0c-.16,0-.22-.06-.22-.27,0-1.56,0-3.12,0-4.68,0-.29-.05-.39-.29-.39,0,0,0,0,0,0-.28,0-.56,0-.84,0-.85,0-1.69,0-2.54,0-.12,0-.25,0-.37,0h0c-.2,0-.27-.06-.26-.32.02-.36,0-.72,0-1.08,0-4.78-.02-9.57-.03-14.35,0-.09.02-.18.03-.3h.34c.63,0,1.27,0,1.9,0,.57,0,1.15,0,1.72,0,0,0,0,0,.01,0,.24,0,.32-.09.32-.4-.01-1.4,0-2.81,0-4.21,0-.24,0-.47,0-.72.09-.01.14-.03.18-.03h0c2.47,0,4.95.01,7.42.01.26,0,.53,0,.79,0h0c.21,0,.26.09.26.34,0,1.2,0,2.4,0,3.6,0,.45,0,.9,0,1.36.08.02.11.03.15.03,2.75,0,5.5,0,8.24,0h0c.19,0,.22-.12.21-.31,0-1.55,0-3.09,0-4.64,0-.27-.05-.37-.28-.37,0,0,0,0-.01,0-1.2.02-2.4.01-3.6.02-.05,0-.1,0-.15,0-.08,0-.17,0-.27,0v-5.34h0Z"/><path class="cls-2" d="m77.36,54.03v-1.36c-.03-1.24-.04-2.48-.04-3.73,0-6.67,0-29.99,0-29.99v-1.45s7.72,0,7.72,0c0,0,.02.91.02,1.09v29.47c0,.21,0,.42-.01.63-.01.18,0,.43.17.63.2.21.48.21.57.21,4.81,0,9.62,0,14.43,0h2.08s-.02,4.49-.02,4.49h-24.92Z"/><path class="cls-3" d="m84.59,17.96s0,.07,0,.1c0,.18,0,.36,0,.54v29.27s0,.2,0,.2c0,.2,0,.4-.01.6-.03.4.07.73.29.97.22.24.52.36.9.36,4.55,0,9.1,0,13.65,0h2.41s0,1.42,0,1.42v2.17h-24.03v-.86c-.02-1.26-.04-2.52-.04-3.77,0-6.91,0-13.81,0-20.72v-9.27c0-.33,0-.67,0-1h6.83m.92-.9h-8.65c0,.63,0,1.27,0,1.9,0,10,0,19.99,0,29.99,0,1.84.03,3.69.05,5.53h25.84s-.03-.09-.03-.13c0-1.71.01-3.42.02-5.14,0-.02-.02-.04-.05-.12-.16,0-.34,0-.52,0-.09,0-.18,0-.27,0-5.38,0-10.76,0-16.13,0h0c-.22,0-.32-.07-.29-.36.02-.29.01-.57.01-.86,0-9.76,0-19.51,0-29.27,0-.36-.01-.72-.02-1.08,0-.15.02-.31.03-.46h0Z"/></svg>